<svg width="96" height="96" viewBox="0 0 96 96" fill="none" xmlns="http://www.w3.org/2000/svg">
<path d="M69.2367 36.2924L48.2367 26.4924C48.1626 26.4579 48.0818 26.4399 47.9999 26.4399C47.9181 26.4399 47.8373 26.4579 47.7631 26.4924L26.7631 36.2924C26.6665 36.3374 26.5848 36.4091 26.5275 36.499C26.4702 36.5889 26.4399 36.6933 26.4399 36.7999V40.9999C26.4399 41.0735 26.4544 41.1463 26.4825 41.2143C26.5106 41.2823 26.5519 41.344 26.6039 41.396C26.6559 41.448 26.7176 41.4893 26.7856 41.5174C26.8536 41.5455 26.9264 41.56 26.9999 41.5599H29.2399V43.7999C29.2399 43.8735 29.2544 43.9463 29.2825 44.0143C29.3106 44.0823 29.3519 44.144 29.4039 44.196C29.4559 44.248 29.5176 44.2893 29.5856 44.3174C29.6535 44.3455 29.7264 44.36 29.7999 44.3599H30.6399V62.8399H29.7999C29.7264 62.8399 29.6535 62.8544 29.5856 62.8825C29.5176 62.9106 29.4559 62.9519 29.4039 63.0039C29.3519 63.0559 29.3106 63.1176 29.2825 63.1856C29.2544 63.2535 29.2399 63.3264 29.2399 63.3999V65.6399H26.9999C26.9264 65.6399 26.8536 65.6544 26.7856 65.6825C26.7176 65.7106 26.6559 65.7519 26.6039 65.8039C26.5519 65.8559 26.5106 65.9176 26.4825 65.9856C26.4544 66.0535 26.4399 66.1264 26.4399 66.1999V68.9999C26.4399 69.0735 26.4544 69.1463 26.4825 69.2143C26.5106 69.2823 26.5519 69.344 26.6039 69.396C26.6559 69.448 26.7176 69.4893 26.7856 69.5174C26.8536 69.5455 26.9264 69.56 26.9999 69.5599H68.9999C69.0735 69.56 69.1463 69.5455 69.2143 69.5174C69.2823 69.4893 69.344 69.448 69.396 69.396C69.448 69.344 69.4893 69.2823 69.5174 69.2143C69.5455 69.1463 69.56 69.0735 69.5599 68.9999V66.1999C69.56 66.1264 69.5455 66.0535 69.5174 65.9856C69.4893 65.9176 69.448 65.8559 69.396 65.8039C69.344 65.7519 69.2823 65.7106 69.2143 65.6825C69.1463 65.6544 69.0735 65.6399 68.9999 65.6399H66.7599V63.3999C66.76 63.3264 66.7455 63.2535 66.7174 63.1856C66.6893 63.1176 66.648 63.0559 66.596 63.0039C66.544 62.9519 66.4823 62.9106 66.4143 62.8825C66.3463 62.8544 66.2735 62.8399 66.1999 62.8399H65.3599V44.3599H66.1999C66.2735 44.36 66.3463 44.3455 66.4143 44.3174C66.4823 44.2893 66.544 44.248 66.596 44.196C66.648 44.144 66.6893 44.0823 66.7174 44.0143C66.7455 43.9463 66.76 43.8735 66.7599 43.7999V41.5599H68.9999C69.0735 41.56 69.1463 41.5455 69.2143 41.5174C69.2823 41.4893 69.344 41.448 69.396 41.396C69.448 41.344 69.4893 41.2823 69.5174 41.2143C69.5455 41.1463 69.56 41.0735 69.5599 40.9999V36.7999C69.56 36.6933 69.5296 36.5889 69.4724 36.499C69.4151 36.4091 69.3334 36.3374 69.2367 36.2924ZM30.3599 43.2399V41.5599H36.2399V43.2399H30.3599ZM39.5999 44.3599H40.4399V62.8399H39.5999C39.5264 62.8399 39.4535 62.8544 39.3856 62.8825C39.3176 62.9106 39.2559 62.9519 39.2039 63.0039C39.1519 63.0559 39.1106 63.1176 39.0825 63.1856C39.0544 63.2535 39.0399 63.3264 39.0399 63.3999V65.6399H37.3599V63.3999C37.36 63.3264 37.3455 63.2535 37.3174 63.1856C37.2893 63.1176 37.248 63.0559 37.196 63.0039C37.144 62.9519 37.0823 62.9106 37.0143 62.8825C36.9463 62.8544 36.8735 62.8399 36.7999 62.8399H35.9599V44.3599H36.7999C36.8735 44.36 36.9463 44.3455 37.0143 44.3174C37.0823 44.2893 37.144 44.248 37.196 44.196C37.248 44.144 37.2893 44.0823 37.3174 44.0143C37.3455 43.9463 37.36 43.8735 37.3599 43.7999V41.5599H39.0399V43.7999C39.0399 43.8735 39.0544 43.9463 39.0825 44.0143C39.1106 44.0823 39.1519 44.144 39.2039 44.196C39.2559 44.248 39.3176 44.2893 39.3856 44.3174C39.4535 44.3455 39.5264 44.36 39.5999 44.3599ZM49.3999 44.3599H50.2399V62.8399H49.3999C49.3264 62.8399 49.2535 62.8544 49.1856 62.8825C49.1176 62.9106 49.0559 62.9519 49.0039 63.0039C48.9519 63.0559 48.9106 63.1176 48.8825 63.1856C48.8544 63.2535 48.8399 63.3264 48.8399 63.3999V65.6399H47.1599V63.3999C47.16 63.3264 47.1455 63.2535 47.1174 63.1856C47.0893 63.1176 47.048 63.0559 46.996 63.0039C46.944 62.9519 46.8823 62.9106 46.8143 62.8825C46.7463 62.8544 46.6735 62.8399 46.5999 62.8399H45.7599V44.3599H46.5999C46.6735 44.36 46.7463 44.3455 46.8143 44.3174C46.8823 44.2893 46.944 44.248 46.996 44.196C47.048 44.144 47.0893 44.0823 47.1174 44.0143C47.1455 43.9463 47.16 43.8735 47.1599 43.7999V41.5599H48.8399V43.7999C48.8399 43.8735 48.8544 43.9463 48.8825 44.0143C48.9106 44.0823 48.9519 44.144 49.0039 44.196C49.0559 44.248 49.1176 44.2893 49.1856 44.3174C49.2535 44.3455 49.3264 44.36 49.3999 44.3599ZM59.1999 44.3599H60.0399V62.8399H59.1999C59.1264 62.8399 59.0535 62.8544 58.9856 62.8825C58.9176 62.9106 58.8559 62.9519 58.8039 63.0039C58.7519 63.0559 58.7106 63.1176 58.6825 63.1856C58.6544 63.2535 58.6399 63.3264 58.6399 63.3999V65.6399H56.9599V63.3999C56.96 63.3264 56.9455 63.2535 56.9174 63.1856C56.8893 63.1176 56.848 63.0559 56.796 63.0039C56.744 62.9519 56.6823 62.9106 56.6143 62.8825C56.5463 62.8544 56.4735 62.8399 56.3999 62.8399H55.5599V44.3599H56.3999C56.4735 44.36 56.5463 44.3455 56.6143 44.3174C56.6823 44.2893 56.744 44.248 56.796 44.196C56.848 44.144 56.8893 44.0823 56.9174 44.0143C56.9455 43.9463 56.96 43.8735 56.9599 43.7999V41.5599H58.6399V43.7999C58.6399 43.8735 58.6544 43.9463 58.6825 44.0143C58.7106 44.0823 58.7519 44.144 58.8039 44.196C58.8559 44.248 58.9176 44.2893 58.9856 44.3174C59.0535 44.3455 59.1264 44.36 59.1999 44.3599ZM54.9999 63.9599H55.8399V65.6399H49.9599V63.9599H54.9999ZM51.3599 62.8399V44.3599H54.4399V62.8399H51.3599ZM55.8399 43.2399H49.9599V41.5599H55.8399V43.2399ZM45.1999 63.9599H46.0399V65.6399H40.1599V63.9599H45.1999ZM41.5599 62.8399V44.3599H44.6399V62.8399H41.5599ZM46.0399 43.2399H40.1599V41.5599H46.0399V43.2399ZM34.8399 44.3599V62.8399H31.7599V44.3599H34.8399ZM30.3599 63.9599H36.2399V65.6399H30.3599V63.9599ZM68.4399 66.7599V68.4399H27.5599V66.7599H68.4399ZM65.6399 63.9599V65.6399H59.7599V63.9599H65.6399ZM61.1599 62.8399V44.3599H64.2399V62.8399H61.1599ZM65.6399 43.2399H59.7599V41.5599H65.6399V43.2399ZM68.4399 40.4399H27.5599V37.1565L47.9999 27.6179L68.4399 37.1565V40.4399Z" fill="#A2A2B5"/>
<path d="M43.24 34C43.24 34.9414 43.5192 35.8617 44.0422 36.6445C44.5652 37.4273 45.3086 38.0374 46.1784 38.3977C47.0482 38.7579 48.0053 38.8522 48.9286 38.6685C49.852 38.4849 50.7001 38.0315 51.3658 37.3658C52.0315 36.7001 52.4849 35.852 52.6685 34.9286C52.8522 34.0053 52.7579 33.0482 52.3977 32.1784C52.0374 31.3086 51.4273 30.5652 50.6445 30.0422C49.8617 29.5192 48.9414 29.24 48 29.24C46.738 29.2415 45.5282 29.7435 44.6358 30.6358C43.7435 31.5282 43.2415 32.738 43.24 34ZM51.64 34C51.64 34.7199 51.4265 35.4237 51.0265 36.0223C50.6266 36.6209 50.0581 37.0874 49.393 37.3629C48.7278 37.6384 47.996 37.7105 47.2899 37.57C46.5838 37.4296 45.9352 37.0829 45.4261 36.5739C44.9171 36.0648 44.5704 35.4162 44.4299 34.7101C44.2895 34.004 44.3616 33.2721 44.6371 32.607C44.9126 31.9419 45.3791 31.3734 45.9777 30.9734C46.5763 30.5735 47.2801 30.36 48 30.36C48.965 30.3611 49.8902 30.745 50.5726 31.4274C51.255 32.1097 51.6389 33.0349 51.64 34Z" fill="#A2A2B5"/>
</svg>
