<svg width="64" height="64" viewBox="0 0 64 64" fill="none" xmlns="http://www.w3.org/2000/svg">
<g clip-path="url(#clip0_1571_5210)">
<path d="M4.182 2.35693C3.4227 3.3584 3 4.59033 3 5.90869V58.0904C3 59.315 3.36595 60.4654 4.02691 61.4263L32.475 31.811L4.182 2.35693Z" fill="white"/>
<path d="M35.0796 29.0992L44.3085 19.4917L11.8677 0.798867C10.4597 -0.0126571 8.84425 -0.20504 7.33691 0.217812L35.0796 29.0992Z" fill="white"/>
<path d="M35.0796 34.5225L7.05664 63.6953C7.66085 63.898 8.28609 64 8.91183 64C9.92699 64 10.9426 63.7334 11.8678 63.2002L44.542 44.3726L35.0796 34.5225Z" fill="white"/>
<path d="M57.1467 26.8897L47.6623 21.4243L37.6848 31.8106L47.8952 42.4404L57.1467 37.1094C58.9979 36.043 60.1031 34.1323 60.1031 31.9995C60.1031 29.8662 58.9979 27.9561 57.1467 26.8897Z" fill="white"/>
</g>
<defs>
<clipPath id="clip0_1571_5210">
<rect width="64" height="64" fill="white"/>
</clipPath>
</defs>
</svg>
