<svg width="32" height="32" viewBox="0 0 32 32" fill="none" xmlns="http://www.w3.org/2000/svg">
<g clip-path="url(#clip0_1568_5120)">
<path d="M28.8114 15.8554C28.2471 15.2912 27.5811 14.8388 26.8487 14.522C27.3418 14.171 27.7557 13.7204 28.0638 13.1994C28.3719 12.6784 28.5673 12.0985 28.6374 11.4973C28.7074 10.8961 28.6506 10.2869 28.4705 9.70902C28.2905 9.13114 27.9913 8.59745 27.5921 8.14241C27.193 7.68738 26.7029 7.32113 26.1534 7.0673C25.6039 6.81348 25.0073 6.67774 24.402 6.66885C23.7968 6.65995 23.1965 6.7781 22.6398 7.01566C22.0831 7.25322 21.5824 7.60492 21.17 8.04802C20.8847 6.8925 20.2204 5.8659 19.2833 5.13207C18.3462 4.39825 17.1903 3.99951 16 3.99951C14.8098 3.99951 13.6539 4.39825 12.7168 5.13207C11.7797 5.8659 11.1154 6.8925 10.83 8.04802C10.4178 7.60438 9.91702 7.25219 9.36011 7.01423C8.8032 6.77628 8.20255 6.65785 7.59699 6.6666C6.99144 6.67536 6.39446 6.8111 5.84467 7.06506C5.29487 7.31902 4.80449 7.68554 4.40524 8.14092C4.00598 8.59629 3.70675 9.1304 3.52687 9.70868C3.34699 10.287 3.29049 10.8966 3.361 11.4981C3.43151 12.0996 3.62748 12.6796 3.93623 13.2006C4.24497 13.7216 4.65963 14.172 5.15337 14.5227C4.01991 15.0139 3.05459 15.8255 2.37598 16.8578C1.69736 17.89 1.33499 19.098 1.33337 20.3334V23.3334C1.33443 24.2171 1.68596 25.0643 2.31085 25.6892C2.93575 26.3141 3.78298 26.6656 4.66671 26.6667H9.35071C9.65861 27.0792 10.0583 27.4144 10.5181 27.6459C10.9779 27.8773 11.4853 27.9985 12 28H20C20.5148 27.9985 21.0222 27.8773 21.482 27.6459C21.9418 27.4144 22.3415 27.0792 22.6494 26.6667H27.3334C28.2171 26.6656 29.0643 26.3141 29.6892 25.6892C30.3141 25.0643 30.6656 24.2171 30.6667 23.3334V20.3334C30.669 19.5013 30.5062 18.6771 30.1877 17.9085C29.8692 17.1398 29.4014 16.442 28.8114 15.8554ZM24.3334 8.00002C24.9267 8.00002 25.5067 8.17597 26.0001 8.50561C26.4934 8.83526 26.878 9.30379 27.105 9.85197C27.3321 10.4002 27.3915 11.0034 27.2757 11.5853C27.16 12.1672 26.8743 12.7018 26.4547 13.1213C26.0351 13.5409 25.5006 13.8266 24.9186 13.9424C24.3367 14.0581 23.7335 13.9987 23.1853 13.7717C22.6371 13.5446 22.1686 13.1601 21.839 12.6667C21.5093 12.1734 21.3334 11.5934 21.3334 11C21.3343 10.2046 21.6506 9.44209 22.213 8.87968C22.7754 8.31726 23.538 8.00091 24.3334 8.00002ZM20.764 15.1027C20.1695 14.5915 19.4967 14.1791 18.7714 13.8814C19.356 13.5235 19.8667 13.0571 20.276 12.5074C20.5788 13.3192 21.1175 14.022 21.8227 14.5254C21.4524 14.684 21.098 14.8773 20.764 15.1027ZM16 5.33336C16.7912 5.33336 17.5645 5.56795 18.2223 6.00748C18.8801 6.447 19.3928 7.07172 19.6956 7.80262C19.9983 8.53353 20.0775 9.33779 19.9232 10.1137C19.7688 10.8896 19.3879 11.6024 18.8285 12.1618C18.2691 12.7212 17.5563 13.1022 16.7804 13.2565C16.0045 13.4108 15.2002 13.3316 14.4693 13.0289C13.7384 12.7261 13.1137 12.2134 12.6742 11.5556C12.2346 10.8978 12 10.1245 12 9.33336C12.0011 8.27282 12.4229 7.25601 13.1728 6.5061C13.9227 5.75618 14.9395 5.33442 16 5.33336ZM11.236 15.1027C10.9021 14.8773 10.5477 14.684 10.1774 14.5254C10.8826 14.022 11.4212 13.3192 11.724 12.5074C12.1334 13.0571 12.6441 13.5235 13.2287 13.8814C12.5034 14.1791 11.8306 14.5915 11.236 15.1027ZM4.66671 11C4.66671 10.4067 4.84265 9.82666 5.1723 9.33331C5.50194 8.83997 5.97048 8.45545 6.51866 8.22838C7.06684 8.00132 7.67004 7.94191 8.25198 8.05767C8.83392 8.17342 9.36847 8.45915 9.78803 8.8787C10.2076 9.29826 10.4933 9.83281 10.6091 10.4148C10.7248 10.9967 10.6654 11.5999 10.4383 12.1481C10.2113 12.6963 9.82677 13.1648 9.33342 13.4944C8.84007 13.8241 8.26005 14 7.66671 14C6.87133 13.9991 6.10878 13.6828 5.54636 13.1204C4.98394 12.558 4.66759 11.7954 4.66671 11ZM4.66671 25.3334C4.13627 25.3334 3.62757 25.1226 3.25249 24.7476C2.87742 24.3725 2.66671 23.8638 2.66671 23.3334V20.3334C2.66542 19.4434 2.90204 18.5693 3.35206 17.8015C3.80208 17.0337 4.44915 16.4002 5.22627 15.9665C6.00339 15.5328 6.88231 15.3147 7.77204 15.3347C8.66176 15.3548 9.52995 15.6124 10.2867 16.0807C9.23774 17.3789 8.66591 18.9977 8.66671 20.6667V24.6667C8.66648 24.8906 8.68882 25.1139 8.73337 25.3334H4.66671ZM22 24.6667C22 25.1971 21.7893 25.7058 21.4143 26.0809C21.0392 26.456 20.5305 26.6667 20 26.6667H12C11.4696 26.6667 10.9609 26.456 10.5858 26.0809C10.2108 25.7058 10 25.1971 10 24.6667V20.6667C10 19.0754 10.6322 17.5493 11.7574 16.424C12.8826 15.2988 14.4087 14.6667 16 14.6667C17.5913 14.6667 19.1175 15.2988 20.2427 16.424C21.3679 17.5493 22 19.0754 22 20.6667V24.6667ZM29.3334 23.3334C29.3334 23.8638 29.1227 24.3725 28.7476 24.7476C28.3725 25.1226 27.8638 25.3334 27.3334 25.3334H23.2667C23.3113 25.1139 23.3336 24.8906 23.3334 24.6667V20.6667C23.3342 18.9977 22.7623 17.3789 21.7134 16.0807C22.4703 15.6135 23.3383 15.3569 24.2276 15.3373C25.1169 15.3178 25.9953 15.536 26.7721 15.9695C27.5489 16.403 28.1958 17.0361 28.646 17.8032C29.0963 18.5704 29.3336 19.4438 29.3334 20.3334V23.3334Z" fill="white"/>
</g>
<defs>
<clipPath id="clip0_1568_5120">
<rect width="32" height="32" fill="white"/>
</clipPath>
</defs>
</svg>
