<svg width="32" height="32" viewBox="0 0 32 32" fill="none" xmlns="http://www.w3.org/2000/svg">
<g clip-path="url(#clip0_1568_5123)">
<mask id="mask0_1568_5123" style="mask-type:luminance" maskUnits="userSpaceOnUse" x="0" y="0" width="32" height="32">
<path d="M0 1.90735e-06H32V32H0V1.90735e-06Z" fill="white"/>
</mask>
<g mask="url(#mask0_1568_5123)">
<path fill-rule="evenodd" clip-rule="evenodd" d="M24.5157 6.48444C25.5408 7.50958 27.2029 7.50958 28.228 6.48444C29.2531 5.4593 29.2531 3.79726 28.228 2.77212C27.2029 1.74698 25.5408 1.74698 24.5157 2.77212C23.4905 3.79726 23.4905 5.4593 24.5157 6.48444ZM27.3441 5.60056C26.8071 6.13754 25.9365 6.13754 25.3996 5.60056C24.8626 5.06357 24.8626 4.19299 25.3996 3.656C25.9365 3.11902 26.8071 3.11902 27.3441 3.656C27.8811 4.19299 27.8811 5.06357 27.3441 5.60056Z" fill="white"/>
<path fill-rule="evenodd" clip-rule="evenodd" d="M3.77215 29.228C4.79729 30.2531 6.45933 30.2531 7.48447 29.228C8.50961 28.2028 8.50961 26.5408 7.48447 25.5157C6.45933 24.4905 4.79729 24.4905 3.77215 25.5157C2.74701 26.5408 2.74701 28.2028 3.77215 29.228ZM6.60059 28.3441C6.0636 28.8811 5.19302 28.8811 4.65603 28.3441C4.11905 27.8071 4.11905 26.9365 4.65603 26.3995C5.19302 25.8625 6.0636 25.8625 6.60059 26.3995C7.13757 26.9365 7.13757 27.8071 6.60059 28.3441Z" fill="white"/>
<path fill-rule="evenodd" clip-rule="evenodd" d="M16.0001 30.75C15.0035 30.75 14.0307 30.6512 13.0906 30.4632C12.7521 30.3955 12.4229 30.615 12.3552 30.9535C12.2875 31.292 12.507 31.6212 12.8454 31.6889C13.8658 31.893 14.9207 32 16.0001 32C24.8366 32 32.0001 24.8366 32.0001 16C32.0001 12.143 30.6343 8.60355 28.361 5.84065C28.1417 5.5741 27.7478 5.53581 27.4813 5.75512C27.2147 5.97444 27.1764 6.36831 27.3958 6.63486C29.4918 9.18233 30.7501 12.4433 30.7501 16C30.7501 24.1462 24.1463 30.75 16.0001 30.75Z" fill="white"/>
<path fill-rule="evenodd" clip-rule="evenodd" d="M4.51879 26.2449C4.78534 26.0256 4.82363 25.6318 4.60432 25.3652C2.50826 22.8177 1.25 19.5567 1.25 16.0001C1.25 7.85386 7.8538 1.25006 16 1.25006C17.0064 1.25006 17.9887 1.3508 18.9375 1.54249C19.2758 1.61085 19.6055 1.39198 19.6739 1.05364C19.7422 0.715302 19.5234 0.385606 19.185 0.31725C18.1552 0.109194 17.0901 5.72205e-05 16 5.72205e-05C7.16345 5.72205e-05 0 7.16351 0 16.0001C0 19.857 1.36574 23.3965 3.63906 26.1594C3.85837 26.426 4.25225 26.4643 4.51879 26.2449Z" fill="white"/>
<path fill-rule="evenodd" clip-rule="evenodd" d="M13.4211 26.75C13.4211 27.0952 13.7009 27.375 14.0461 27.375H17.9541C18.2993 27.375 18.5791 27.0952 18.5791 26.75V25.5383C19.4093 25.3145 20.1963 24.9854 20.9247 24.5662L21.7801 25.4217C21.8974 25.5389 22.0564 25.6048 22.2222 25.6047C22.388 25.6047 22.547 25.5388 22.6642 25.4215L25.4265 22.6572C25.6704 22.413 25.6704 22.0174 25.4263 21.7734L24.5719 20.919C24.9911 20.1906 25.3201 19.4036 25.5439 18.5734H26.7511C27.0963 18.5734 27.3761 18.2936 27.3761 17.9484V14.0404C27.3761 13.6953 27.0963 13.4154 26.7511 13.4154H25.5438C25.32 12.5852 24.991 11.7982 24.5718 11.0699L25.4217 10.2199C25.539 10.1027 25.6048 9.94368 25.6048 9.77788C25.6047 9.61208 25.5388 9.45309 25.4216 9.3359L22.6572 6.57359C22.4131 6.32966 22.0175 6.32973 21.7735 6.57375L20.9246 7.42269C20.1963 7.00349 19.4093 6.67448 18.5791 6.45073V5.25C18.5791 4.90483 18.2993 4.625 17.9541 4.625H14.0461C13.7009 4.625 13.4211 4.90483 13.4211 5.25V6.45073C12.5909 6.67448 11.8039 7.00349 11.0756 7.42269L10.2267 6.57375C9.98264 6.32973 9.58703 6.32966 9.34293 6.57359L6.57862 9.3359C6.46134 9.45309 6.39543 9.61208 6.3954 9.77788C6.39537 9.94368 6.46121 10.1027 6.57844 10.2199L7.42835 11.0699C7.00913 11.7982 6.68012 12.5852 6.45633 13.4154H5.25115C4.9061 13.4154 4.62634 13.6951 4.62615 14.0401L4.62402 17.948C4.62393 18.1139 4.68974 18.2729 4.80696 18.3902C4.92418 18.5075 5.0832 18.5734 5.24902 18.5734H6.45627C6.68006 19.4036 7.00907 20.1906 7.42829 20.919L6.57383 21.7734C6.32982 22.0174 6.32974 22.413 6.57367 22.6572L9.33598 25.4215C9.45318 25.5388 9.61217 25.6047 9.77798 25.6047C9.94378 25.6048 10.1028 25.5389 10.22 25.4217L11.0755 24.5662C11.8039 24.9854 12.5909 25.3145 13.4211 25.5383V26.75ZM14.6711 26.125V25.0467C14.6711 24.7521 14.4654 24.4975 14.1774 24.4356C13.1445 24.2137 12.18 23.8073 11.3204 23.2517C11.073 23.0918 10.7475 23.1264 10.5392 23.3347L9.77824 24.0957L7.89949 22.2155L8.65978 21.4553C8.86807 21.247 8.90265 20.9215 8.74277 20.6741C8.18724 19.8144 7.78083 18.85 7.55889 17.8171C7.49701 17.5291 7.24242 17.3234 6.94784 17.3234H5.87436L5.87581 14.6654H6.9479C7.24248 14.6654 7.49707 14.4597 7.55895 14.1717C7.78089 13.1388 8.1873 12.1744 8.74282 11.3148C8.90271 11.0674 8.86814 10.7419 8.65985 10.5336L7.90443 9.77817L9.78455 7.89941L10.5393 8.65419C10.7476 8.86249 11.0731 8.89707 11.3205 8.73717C12.1801 8.18165 13.1445 7.77525 14.1773 7.55338C14.4654 7.49151 14.6711 7.23691 14.6711 6.94231V5.875H17.3291V6.94231C17.3291 7.23691 17.5348 7.49151 17.8228 7.55338C18.8557 7.77525 19.8201 8.18165 20.6797 8.73717C20.9271 8.89706 21.2525 8.86249 21.4608 8.65419L22.2156 7.89941L24.0957 9.77817L23.3403 10.5336C23.132 10.7419 23.0975 11.0674 23.2573 11.3148C23.8129 12.1744 24.2193 13.1388 24.4412 14.1717C24.5031 14.4597 24.7577 14.6654 25.0523 14.6654H26.1261V17.3234H25.0523C24.7578 17.3234 24.5032 17.5291 24.4413 17.8171C24.2193 18.85 23.8129 19.8144 23.2574 20.6741C23.0975 20.9215 23.1321 21.247 23.3404 21.4553L24.1007 22.2155L22.2219 24.0957L21.461 23.3347C21.2527 23.1264 20.9272 23.0918 20.6798 23.2517C19.8201 23.8073 18.8557 24.2137 17.8228 24.4356C17.5348 24.4975 17.3291 24.7521 17.3291 25.0467V26.125H14.6711ZM10.8357 16C10.8357 18.8522 13.1479 21.1644 16.0001 21.1644C18.8523 21.1644 21.1645 18.8522 21.1645 16C21.1645 13.1478 18.8523 10.8357 16.0001 10.8357C13.1479 10.8357 10.8357 13.1478 10.8357 16ZM16.0001 19.9144C13.8383 19.9144 12.0857 18.1619 12.0857 16C12.0857 13.8382 13.8383 12.0857 16.0001 12.0857C18.1619 12.0857 19.9145 13.8382 19.9145 16C19.9145 18.1619 18.1619 19.9144 16.0001 19.9144Z" fill="white"/>
</g>
</g>
<defs>
<clipPath id="clip0_1568_5123">
<rect width="32" height="32" fill="white"/>
</clipPath>
</defs>
</svg>
