<svg width="96" height="96" viewBox="0 0 96 96" fill="none" xmlns="http://www.w3.org/2000/svg">
<g clip-path="url(#clip0_1568_5050)">
<path d="M65.4475 64.0038C64.8175 63.3125 63.9513 62.9188 63.015 62.875C62.385 62.8575 61.7725 63.0063 61.23 63.295L56.995 58.7013C59.4625 56.6275 61.195 53.7138 61.7725 50.415L66.4013 51.8938C66.1825 53.915 67.4075 55.8925 69.42 56.5313C69.8575 56.6713 70.3125 56.7413 70.75 56.7413C72.605 56.7413 74.3288 55.5513 74.915 53.6963C75.2738 52.585 75.1688 51.395 74.635 50.3625C74.1013 49.3213 73.1913 48.5513 72.08 48.2013C70.0675 47.5538 67.9325 48.4463 66.935 50.2225L61.965 48.6388C61.9738 48.42 62 48.21 62 47.9913C62 44.2375 60.5125 40.8425 58.0975 38.3225L64.4675 32.5388C64.9838 32.88 65.5788 33.0813 66.2088 33.1163H66.3838C67.2588 33.1163 68.0813 32.7925 68.7375 32.2063C70.1638 30.9113 70.2688 28.6888 68.9738 27.2625C67.6788 25.8363 65.4563 25.7313 64.03 27.0263C62.8225 28.12 62.5775 29.8613 63.295 31.2438L56.82 37.1325C54.4138 35.1725 51.3425 34 48.0088 34C46.88 34 45.7863 34.1488 44.7275 34.4025L42.4088 28.9688C44.2288 27.8575 45.0163 25.5563 44.1588 23.535C43.2138 21.3125 40.6413 20.28 38.4188 21.225C36.1963 22.17 35.1638 24.7513 36.1088 26.965C36.8175 28.6275 38.4363 29.625 40.1338 29.625C40.3438 29.625 40.545 29.59 40.755 29.5638L43.0475 34.9275C38.4888 36.66 35.0763 40.7025 34.2275 45.6113L27.8225 45.8388C27.6475 45.2438 27.3325 44.7013 26.8688 44.2638C26.1863 43.625 25.285 43.2925 24.3575 43.3275C23.4213 43.3625 22.555 43.7563 21.9163 44.4388C21.2775 45.1213 20.945 46.0138 20.98 46.95C21.05 48.84 22.5988 50.3275 24.48 50.3275H24.6025C25.5388 50.2925 26.405 49.8988 27.0438 49.2163C27.4725 48.7525 27.7525 48.1925 27.8838 47.5888L34.0438 47.37C34.035 47.58 34.0088 47.79 34.0088 48C34.0088 52.6025 36.2488 56.68 39.6875 59.235L34.77 66.69C33.9825 66.3663 33.1163 66.2875 32.2588 66.4625C31.1125 66.6988 30.1325 67.3638 29.485 68.335C28.8375 69.3063 28.6188 70.4788 28.8463 71.625C29.0738 72.7713 29.7475 73.7513 30.7188 74.3988C31.445 74.88 32.2763 75.125 33.1163 75.125C33.4138 75.125 33.7113 75.0988 34 75.0375C35.1463 74.8013 36.1263 74.1363 36.7738 73.165C37.4213 72.1938 37.64 71.0213 37.4125 69.875C37.2375 69.0175 36.8263 68.2563 36.2225 67.6613L41.1488 60.1975C43.1788 61.3438 45.515 62.0088 48.0088 62.0088C50.8 62.0088 53.3988 61.1775 55.5863 59.76L59.9525 64.4938C59.1125 65.7975 59.2088 67.5563 60.3113 68.755C60.9413 69.4463 61.8075 69.84 62.7438 69.8838H62.8925C63.7763 69.8838 64.6075 69.56 65.2638 68.9563C66.6813 67.6525 66.7775 65.43 65.465 64.0125L65.4475 64.0038ZM68.2475 51.5788C68.685 50.205 70.1638 49.435 71.5463 49.8813C72.2113 50.0913 72.7625 50.555 73.0775 51.1763C73.4013 51.7975 73.4538 52.5063 73.2438 53.18C72.8063 54.5625 71.3188 55.3238 69.945 54.8775C68.5713 54.44 67.8013 52.9525 68.2475 51.5788ZM65.1938 28.33C65.5263 28.0238 65.9463 27.875 66.3663 27.875C66.8388 27.875 67.32 28.0675 67.6613 28.4438C68.3088 29.1613 68.2563 30.2638 67.5388 30.92C67.1888 31.235 66.7513 31.4013 66.2788 31.375C65.815 31.3488 65.3775 31.1475 65.0713 30.8063C64.4238 30.0888 64.4763 28.9863 65.1938 28.33ZM41.1488 27.665C39.8188 28.2338 38.27 27.6125 37.7013 26.2825C37.1325 24.9525 37.7538 23.4038 39.0838 22.835C39.4163 22.695 39.7663 22.625 40.1075 22.625C41.1313 22.625 42.1025 23.22 42.5225 24.2175C43.0913 25.5475 42.47 27.0963 41.14 27.665H41.1488ZM25.7488 48.0175C25.4338 48.3588 24.9963 48.56 24.5325 48.5688C23.5525 48.5688 22.7563 47.8425 22.7213 46.88C22.7038 46.4163 22.87 45.97 23.1938 45.6288C23.5175 45.2875 23.9463 45.0863 24.41 45.0775C24.8913 45.0775 25.32 45.2263 25.6613 45.55C26.0025 45.8738 26.2038 46.3025 26.2125 46.7663C26.23 47.23 26.0638 47.6763 25.74 48.0175H25.7488ZM35.3213 72.1938C34.9363 72.78 34.3413 73.1825 33.6588 73.3225C32.9763 73.4625 32.2763 73.3225 31.69 72.9375C31.1038 72.5525 30.7013 71.9575 30.5613 71.275C30.4213 70.5925 30.5613 69.8925 30.9463 69.3063C31.3313 68.72 31.9263 68.3175 32.6088 68.1775C32.7838 68.1425 32.9675 68.125 33.1425 68.125C33.65 68.125 34.1488 68.2738 34.5863 68.5625C35.1725 68.9475 35.575 69.5425 35.715 70.225C35.855 70.9075 35.715 71.6075 35.33 72.1938H35.3213ZM48.0088 60.25C41.2538 60.25 35.7588 54.755 35.7588 48C35.7588 41.245 41.2538 35.75 48.0088 35.75C54.7638 35.75 60.2588 41.245 60.2588 48C60.2588 54.755 54.7638 60.25 48.0088 60.25ZM64.065 67.6613C63.7238 67.9763 63.2688 68.1338 62.805 68.125C62.3413 68.1075 61.9038 67.9063 61.5888 67.565C60.9325 66.8563 60.985 65.745 61.6938 65.0888C62.035 64.7738 62.4813 64.6163 62.9538 64.625C63.4175 64.6425 63.855 64.8438 64.17 65.185C64.8263 65.8938 64.7738 67.005 64.065 67.6613Z" fill="#A2A2B5"/>
<path d="M55.9013 49.085L55.5163 48.8663C55.5513 48.5775 55.5688 48.28 55.5688 47.9912C55.5688 47.7025 55.5513 47.405 55.5163 47.1162L55.91 46.8975C56.3038 46.6787 56.5838 46.32 56.7063 45.8913C56.82 45.4625 56.7588 45.025 56.5313 44.6488L55.2625 42.5488C54.8075 41.7875 53.7925 41.525 53.0138 41.9625L52.585 42.2075C52.0775 41.84 51.5263 41.5338 50.9488 41.2975V40.8775C50.9488 39.9763 50.205 39.25 49.2863 39.25H46.7488C45.83 39.25 45.0863 39.985 45.0863 40.8775V41.2975C44.5088 41.5338 43.9575 41.84 43.485 42.225L43.0213 41.9713C42.2338 41.5425 41.2275 41.805 40.7725 42.5663L39.5038 44.6663C39.2763 45.0425 39.215 45.48 39.3288 45.9088C39.4425 46.3375 39.7225 46.6963 40.125 46.915L40.51 47.1338C40.475 47.4225 40.4575 47.72 40.4575 48.0087C40.4575 48.2975 40.475 48.595 40.51 48.8837L40.1163 49.1025C39.7225 49.3212 39.4425 49.68 39.32 50.1087C39.2063 50.5375 39.2675 50.975 39.495 51.3513L40.7638 53.4512C41.2188 54.2125 42.2338 54.475 43.0125 54.0375L43.4413 53.7925C43.9488 54.16 44.5 54.4662 45.0775 54.7025V55.1225C45.0775 56.0237 45.8213 56.75 46.74 56.75H49.2775C50.1963 56.75 50.94 56.015 50.94 55.1225V54.7025C51.5175 54.4662 52.0688 54.16 52.5413 53.775L53.005 54.0287C53.7838 54.4575 54.7988 54.195 55.2538 53.4337L56.5225 51.3338C56.75 50.9575 56.8113 50.52 56.6975 50.0912C56.5838 49.6625 56.3038 49.3038 55.9013 49.085ZM53.8188 48C53.8188 48.245 53.8013 48.49 53.7663 48.7437C53.67 49.3912 54.0113 50.0475 54.5975 50.3712L54.9475 50.5638L53.7925 52.4713L53.3813 52.2437C52.8038 51.9287 52.0863 51.9813 51.5438 52.375C51.1413 52.6638 50.7125 52.9087 50.2575 53.0925C49.61 53.355 49.19 53.95 49.19 54.615V55H46.8188V54.615C46.8188 53.95 46.3988 53.355 45.7513 53.0925C45.2963 52.9087 44.8588 52.6725 44.465 52.375C43.9225 51.9725 43.1963 51.9287 42.6275 52.2437L42.2163 52.4713L41.0613 50.5638L41.4113 50.3712C42.0063 50.0475 42.3388 49.3912 42.2425 48.7437C42.2075 48.4987 42.19 48.245 42.19 48C42.19 47.755 42.2075 47.51 42.2425 47.2562C42.3388 46.6087 41.9975 45.9525 41.4113 45.6288L41.0613 45.4362L42.2163 43.5287L42.6275 43.7562C43.205 44.0712 43.9313 44.0187 44.465 43.625C44.8675 43.3362 45.2963 43.0913 45.7513 42.9075C46.3988 42.645 46.8188 42.05 46.8188 41.385V41H49.19V41.385C49.19 42.05 49.61 42.645 50.2575 42.9075C50.7125 43.0913 51.15 43.3275 51.5438 43.625C52.0863 44.0275 52.8125 44.08 53.3813 43.7562L53.7925 43.5287L54.9475 45.4362L54.5975 45.6288C54.0025 45.9525 53.67 46.6087 53.7663 47.2562C53.8013 47.5012 53.8188 47.755 53.8188 48Z" fill="#A2A2B5"/>
<path d="M48 44.0625C45.83 44.0625 44.0625 45.83 44.0625 48C44.0625 50.17 45.83 51.9375 48 51.9375C50.17 51.9375 51.9375 50.17 51.9375 48C51.9375 45.83 50.17 44.0625 48 44.0625ZM48 50.1875C46.7925 50.1875 45.8125 49.2075 45.8125 48C45.8125 46.7925 46.7925 45.8125 48 45.8125C49.2075 45.8125 50.1875 46.7925 50.1875 48C50.1875 49.2075 49.2075 50.1875 48 50.1875Z" fill="#A2A2B5"/>
</g>
<defs>
<clipPath id="clip0_1568_5050">
<rect width="56" height="56" fill="white" transform="translate(20 20)"/>
</clipPath>
</defs>
</svg>
