<svg width="32" height="32" viewBox="0 0 32 32" fill="none" xmlns="http://www.w3.org/2000/svg">
<path d="M28.2666 21.776C27.4506 21.776 27.0293 22.144 26.688 22.4373C26.4106 22.6827 26.224 22.8427 25.808 22.8427C25.392 22.8427 25.2106 22.6827 24.928 22.4427C24.5866 22.1493 24.1653 21.776 23.3493 21.776C22.5386 21.776 22.112 22.144 21.7706 22.4427C21.4933 22.6827 21.3066 22.8427 20.896 22.8427C20.48 22.8427 20.2986 22.6827 20.0213 22.4427C19.68 22.144 19.2586 21.776 18.4426 21.776C17.6266 21.776 17.2053 22.144 16.864 22.4427C16.5866 22.6827 16.4 22.8427 15.9893 22.8427C15.5786 22.8427 15.392 22.6827 15.1146 22.4427C14.7733 22.1493 14.352 21.776 13.5413 21.776C12.7306 21.776 12.304 22.144 11.9626 22.4427C11.6853 22.6827 11.4986 22.8427 11.088 22.8427C10.672 22.8427 10.4906 22.6827 10.2133 22.4427C9.87195 22.144 9.45062 21.776 8.63462 21.776C7.82395 21.776 7.39728 22.144 7.06128 22.4427C6.78395 22.6827 6.59728 22.8427 6.18662 22.8427C5.77595 22.8427 5.58928 22.6827 5.31195 22.4427C4.97062 22.144 4.54395 21.776 3.73328 21.776C3.43995 21.776 3.19995 22.016 3.19995 22.3093C3.19995 22.6027 3.43995 22.8427 3.73328 22.8427C4.14395 22.8427 4.33062 23.0027 4.60795 23.2427C4.94928 23.536 5.37062 23.9093 6.18128 23.9093C6.99195 23.9093 7.41862 23.5413 7.75995 23.2427C8.03728 23.0027 8.22395 22.8427 8.63462 22.8427C9.05062 22.8427 9.23195 23.0027 9.50928 23.2427C9.85062 23.5413 10.272 23.9093 11.088 23.9093C11.8986 23.9093 12.3253 23.5413 12.6666 23.2427C12.944 23.0027 13.1306 22.8427 13.5413 22.8427C13.952 22.8427 14.1386 23.0027 14.416 23.2427C14.7573 23.5413 15.1786 23.9093 15.9893 23.9093C16.8 23.9093 17.2266 23.5413 17.568 23.2427C17.8453 23.0027 18.032 22.8427 18.4426 22.8427C18.8586 22.8427 19.04 23.0027 19.3173 23.2427C19.6586 23.5413 20.08 23.9093 20.896 23.9093C21.7066 23.9093 22.1333 23.5413 22.4746 23.2427C22.752 23.0027 22.9386 22.8427 23.3493 22.8427C23.7653 22.8427 23.952 23.0027 24.2293 23.248C24.5706 23.5413 24.992 23.9093 25.808 23.9093C26.624 23.9093 27.0453 23.5413 27.3866 23.248C27.664 23.0027 27.8506 22.8427 28.2666 22.8427C28.56 22.8427 28.8 22.6027 28.8 22.3093C28.8 22.016 28.56 21.776 28.2666 21.776Z" fill="white"/>
<path d="M28.2666 24.976C27.4506 24.976 27.0293 25.344 26.688 25.6373C26.4106 25.8826 26.224 26.0426 25.808 26.0426C25.392 26.0426 25.2106 25.8826 24.928 25.6426C24.5866 25.3493 24.1653 24.976 23.3493 24.976C22.5386 24.976 22.112 25.344 21.7706 25.6426C21.4933 25.8826 21.3066 26.0426 20.896 26.0426C20.48 26.0426 20.2986 25.8826 20.0213 25.6426C19.68 25.344 19.2586 24.976 18.4426 24.976C17.6266 24.976 17.2053 25.344 16.864 25.6426C16.5866 25.8826 16.4 26.0426 15.9893 26.0426C15.5786 26.0426 15.392 25.8826 15.1146 25.6426C14.7733 25.3493 14.352 24.976 13.5413 24.976C12.7306 24.976 12.304 25.344 11.9626 25.6426C11.6853 25.8826 11.4986 26.0426 11.088 26.0426C10.672 26.0426 10.4906 25.8826 10.2133 25.6426C9.87195 25.344 9.45062 24.976 8.63462 24.976C7.82395 24.976 7.39728 25.344 7.06128 25.6426C6.78395 25.8826 6.59728 26.0426 6.18662 26.0426C5.77595 26.0426 5.58928 25.8826 5.31195 25.6426C4.97062 25.344 4.54395 24.976 3.73328 24.976C3.43995 24.976 3.19995 25.216 3.19995 25.5093C3.19995 25.8026 3.43995 26.0426 3.73328 26.0426C4.14395 26.0426 4.33062 26.2026 4.60795 26.4426C4.94928 26.736 5.37062 27.1093 6.18128 27.1093C6.99195 27.1093 7.41862 26.7413 7.75995 26.4426C8.03728 26.2026 8.22395 26.0426 8.63462 26.0426C9.05062 26.0426 9.23195 26.2026 9.50928 26.4426C9.85062 26.7413 10.272 27.1093 11.088 27.1093C11.8986 27.1093 12.3253 26.7413 12.6666 26.4426C12.944 26.2026 13.1306 26.0426 13.5413 26.0426C13.952 26.0426 14.1386 26.2026 14.416 26.4426C14.7573 26.7413 15.1786 27.1093 15.9893 27.1093C16.8 27.1093 17.2266 26.7413 17.568 26.4426C17.8453 26.2026 18.032 26.0426 18.4426 26.0426C18.8586 26.0426 19.04 26.2026 19.3173 26.4426C19.6586 26.7413 20.08 27.1093 20.896 27.1093C21.7066 27.1093 22.1333 26.7413 22.4746 26.4426C22.752 26.2026 22.9386 26.0426 23.3493 26.0426C23.7653 26.0426 23.952 26.2026 24.2293 26.448C24.5706 26.7413 24.992 27.1093 25.808 27.1093C26.624 27.1093 27.0453 26.7413 27.3866 26.448C27.664 26.2026 27.8506 26.0426 28.2666 26.0426C28.56 26.0426 28.8 25.8026 28.8 25.5093C28.8 25.216 28.56 24.976 28.2666 24.976Z" fill="white"/>
<path d="M19.3173 20.0426C19.6586 20.3413 20.0799 20.7093 20.8959 20.7093C21.7066 20.7093 22.1333 20.3413 22.4746 20.0426C22.7519 19.8026 22.9386 19.6426 23.3493 19.6426C23.7653 19.6426 23.9519 19.8026 24.2346 20.0479C24.5759 20.3413 24.9973 20.7093 25.8133 20.7093C26.6293 20.7093 27.0559 20.3413 27.3973 20.0426C27.6746 19.8026 27.8613 19.6426 28.2719 19.6426C28.5653 19.6426 28.8053 19.4026 28.8053 19.1093C28.8053 18.8159 28.5653 18.5759 28.2719 18.5759C27.4613 18.5759 27.0346 18.9439 26.6986 19.2373C26.4159 19.4826 26.2346 19.6426 25.8133 19.6426C25.3973 19.6426 25.2159 19.4826 24.9386 19.2426C24.5973 18.9439 24.1706 18.5759 23.3546 18.5759C22.5439 18.5759 22.1173 18.9439 21.7759 19.2426C21.4986 19.4826 21.3119 19.6426 20.9013 19.6426C20.4853 19.6426 20.3039 19.4826 20.0266 19.2426C19.9626 19.1893 19.8986 19.1306 19.8239 19.0719L19.2159 19.9519C19.2426 19.9839 19.2799 20.0106 19.3173 20.0426Z" fill="white"/>
<path d="M3.73328 19.6427C4.14928 19.6427 4.33062 19.8027 4.60795 20.048C4.94928 20.3413 5.37062 20.7093 6.18128 20.7093C6.99195 20.7093 7.41862 20.3413 7.75995 20.0427C8.03728 19.8027 8.22395 19.6427 8.63462 19.6427C9.05062 19.6427 9.23195 19.8027 9.50928 20.0427C9.85062 20.336 10.272 20.7093 11.088 20.7093C11.904 20.7093 12.3253 20.3413 12.6666 20.0427C12.7093 20.0053 12.7466 19.9733 12.7893 19.9413L12.1813 19.0613C12.1066 19.12 12.0373 19.1787 11.968 19.2373C11.6906 19.4773 11.504 19.6373 11.0933 19.6373C10.6826 19.6373 10.496 19.4773 10.2186 19.2373C9.87728 18.9387 9.45595 18.5707 8.63995 18.5707C7.82929 18.5707 7.40262 18.9387 7.06128 19.2373C6.78395 19.4773 6.59728 19.6373 6.18662 19.6373C5.77595 19.6373 5.59462 19.4773 5.31728 19.2373C4.97062 18.944 4.54928 18.576 3.73328 18.576C3.43995 18.576 3.19995 18.816 3.19995 19.1093C3.19995 19.4027 3.43995 19.6427 3.73328 19.6427Z" fill="white"/>
<path d="M19.6372 17.4613L16.4372 22.08C16.3412 22.224 16.1759 22.3093 15.9999 22.3093C15.8239 22.3093 15.6586 22.224 15.5626 22.08L12.3626 17.4613C12.2506 17.296 12.2346 17.088 12.3252 16.912C12.4212 16.736 12.6026 16.624 12.7999 16.624H14.3999V5.42396C14.3999 5.13063 14.6399 4.89062 14.9332 4.89062H17.0666C17.3599 4.89062 17.5999 5.13063 17.5999 5.42396V16.624H19.1999C19.3972 16.624 19.5786 16.736 19.6746 16.912C19.7652 17.088 19.7492 17.296 19.6372 17.4613Z" fill="white"/>
</svg>
