<svg width="64" height="64" viewBox="0 0 64 64" fill="none" xmlns="http://www.w3.org/2000/svg">
<path opacity="0.6" d="M57.7908 10.7564V20.0291C57.7744 20.9875 56.9962 21.7657 56.0378 21.7657H51.7291L39.8433 9.87988H56.9143C57.4058 9.87988 57.7908 10.2649 57.7908 10.7564Z" fill="white"/>
<path opacity="0.5" d="M52.114 6.79165V16.7525C52.1222 17.2931 51.6799 17.7109 51.1392 17.7109H47.6742L35.7966 5.83325H51.1556C51.6963 5.83325 52.114 6.27559 52.114 6.79165Z" fill="white"/>
<path opacity="0.8" d="M63.9998 15.0814V25.3781C64.008 25.8859 63.5821 26.3119 63.0742 26.3119H56.2753L44.1191 14.1558H63.0742C63.5821 14.1558 63.9998 14.5571 63.9998 15.0814Z" fill="white"/>
<path d="M56.1115 49.7724C50.5085 57.6444 41.3095 62.7805 30.9146 62.7805C13.8436 62.7805 0 48.9369 0 31.8659C0 15.5403 12.664 2.16365 28.7029 1.03323C28.8339 1.03323 28.9568 1.01685 29.0879 1.01685C30.1036 1.04961 30.9146 1.81142 30.9146 2.75344V13.902C20.9783 13.902 12.9343 21.9542 12.9343 31.8823C12.9343 41.8103 20.9865 49.8625 30.9146 49.8625C40.8426 49.8625 48.8948 41.8103 48.8948 31.8823C48.8948 31.8823 58.9458 36.0353 56.1115 49.7724Z" fill="white"/>
<path opacity="0.95" d="M61.7471 34.2495C61.5915 32.9143 60.3955 31.8822 58.9292 31.8822H33.0033C31.8565 31.8822 30.9226 30.9565 30.9226 29.8015V2.75334C30.9226 1.81132 30.1117 1.04951 29.0959 1.01675C29.2106 1.01675 29.3335 1.00036 29.4482 1.00036C30.767 0.983981 31.4715 1.52462 31.6599 1.69664L59.5518 29.5886C61.9109 31.9641 61.7471 34.2495 61.7471 34.2495Z" fill="white"/>
<path opacity="0.91" d="M61.731 34.225C61.7147 34.569 61.6819 34.9049 61.6491 35.2243C61.0675 40.6061 59.1016 45.5783 56.1117 49.7724C58.9459 36.0271 48.895 31.8822 48.895 31.8822H58.9214C60.3958 31.8822 61.5918 32.9143 61.731 34.225Z" fill="url(#paint0_linear_1597_4230)"/>
<defs>
<linearGradient id="paint0_linear_1597_4230" x1="55.313" y1="50.478" x2="55.313" y2="31.9604" gradientUnits="userSpaceOnUse">
<stop offset="0.018436" stop-color="white" stop-opacity="0.8"/>
<stop offset="1" stop-color="white"/>
</linearGradient>
</defs>
</svg>
