<svg width="96" height="96" viewBox="0 0 96 96" fill="none" xmlns="http://www.w3.org/2000/svg">
<g clip-path="url(#clip0_1568_5067)">
<path d="M70.1539 24.9231H25.8462C25.3364 24.9231 24.9231 25.3364 24.9231 25.8462V70.1539C24.9231 70.6636 25.3364 71.0769 25.8462 71.0769H70.1539C70.6636 71.0769 71.0769 70.6636 71.0769 70.1539C71.0769 56.1548 71.0769 27.0048 71.0769 25.8462C71.0769 25.3364 70.6636 24.9231 70.1539 24.9231ZM26.7692 26.7692H69.2308V32.3077H26.7692V26.7692ZM69.2308 69.2308H26.7692V34.1539H69.2308V69.2308Z" fill="#A2A2B5"/>
<path d="M65.5386 28.6154H67.3847V30.4615H65.5386V28.6154Z" fill="#A2A2B5"/>
<path d="M61.8462 28.6154H63.6923V30.4615H61.8462V28.6154Z" fill="#A2A2B5"/>
<path d="M58.1538 28.6154H60V30.4615H58.1538V28.6154Z" fill="#A2A2B5"/>
<path d="M51.6924 28.6154H29.5386C29.0287 28.6154 28.6155 29.0286 28.6155 29.5384C28.6155 30.0482 29.0287 30.4615 29.5386 30.4615H51.6924C52.2021 30.4615 52.6155 30.0482 52.6155 29.5384C52.6155 29.0286 52.2021 28.6154 51.6924 28.6154Z" fill="#A2A2B5"/>
<path d="M29.5386 67.3846H36.9232C37.433 67.3846 37.8462 66.9713 37.8462 66.4615V59.0769C37.8462 58.5672 37.433 58.1538 36.9232 58.1538H34.1539V52.6154H61.8462V58.1538H59.077C58.5673 58.1538 58.1539 58.5672 58.1539 59.0769V66.4615C58.1539 66.9713 58.5673 67.3846 59.077 67.3846H66.4616C66.9714 67.3846 67.3847 66.9713 67.3847 66.4615V59.0769C67.3847 58.5672 66.9714 58.1538 66.4616 58.1538H63.6924V51.6923C63.6924 51.1826 63.279 50.7692 62.7693 50.7692H48.9232V45.2308H51.6924C52.2021 45.2308 52.6155 44.8175 52.6155 44.3077V36.9231C52.6155 36.4133 52.2021 36 51.6924 36H44.3078C43.798 36 43.3847 36.4133 43.3847 36.9231V44.3077C43.3847 44.8175 43.798 45.2308 44.3078 45.2308H47.077V50.7692H33.2309C32.721 50.7692 32.3078 51.1826 32.3078 51.6923V58.1538H29.5386C29.0287 58.1538 28.6155 58.5672 28.6155 59.0769V66.4615C28.6155 66.9713 29.0287 67.3846 29.5386 67.3846ZM65.5386 65.5385H60.0001V60H65.5386V65.5385ZM45.2309 37.8462H50.7693V43.3846H45.2309V37.8462ZM30.4616 60H36.0001V65.5385H30.4616V60Z" fill="#A2A2B5"/>
</g>
<defs>
<clipPath id="clip0_1568_5067">
<rect width="48" height="48" fill="white" transform="translate(24 24)"/>
</clipPath>
</defs>
</svg>
