<svg width="96" height="96" viewBox="0 0 96 96" fill="none" xmlns="http://www.w3.org/2000/svg">
<g clip-path="url(#clip0_1568_5034)">
<path d="M53.2475 26.2025C53.0305 26.2025 52.8131 26.1242 52.641 25.9658C52.4767 25.8147 52.3035 25.67 52.126 25.5359C51.7313 25.2375 51.6533 24.6756 51.9518 24.2809C52.2501 23.8861 52.8121 23.8081 53.2068 24.1065C53.43 24.2753 53.6479 24.4572 53.8543 24.6472C54.4412 25.1872 54.0491 26.2025 53.2475 26.2025Z" fill="#A2A2B5"/>
<path d="M63.9131 37.077C61.878 34.8694 59.3732 33.086 56.6362 31.8874C56.6606 31.6216 56.6747 31.3528 56.6747 31.0807C56.6747 29.7538 56.3853 28.4792 55.8145 27.2923C55.6003 26.8464 55.0647 26.6587 54.6187 26.873C54.1728 27.0875 53.9851 27.6229 54.1995 28.0689C54.6529 29.0116 54.8827 30.0248 54.8827 31.0807C54.8827 34.9056 51.7835 38.0174 47.9742 38.0174C44.1649 38.0174 41.0658 34.9056 41.0658 31.0807C41.0658 27.2557 44.165 24.1441 47.9743 24.1441C48.5309 24.1441 49.0843 24.2106 49.6191 24.3417C50.0995 24.4596 50.5848 24.1654 50.7027 23.6849C50.8207 23.2043 50.5266 22.7191 50.046 22.6013C49.3715 22.4359 48.6745 22.3521 47.9743 22.3521C43.1769 22.3521 39.2739 26.2677 39.2739 31.0808C39.2739 35.8939 43.1769 39.8095 47.9743 39.8095C51.8659 39.8095 55.1685 37.2328 56.2771 33.6908C61.3861 36.0531 65.3621 40.5823 67.0159 45.9886C67.1641 46.4726 67.7033 46.742 68.1793 46.5682C68.6212 46.407 68.8671 45.9145 68.7295 45.4644C67.7822 42.3676 66.1167 39.4673 63.9131 37.077Z" fill="#A2A2B5"/>
<path d="M67.2996 50.9688C62.5021 50.9688 58.5992 54.8844 58.5992 59.6975C58.5992 62.3669 59.8009 64.7588 61.6888 66.3612C57.9745 69.9122 53.1428 71.856 47.9744 71.856C45.7324 71.856 43.5323 71.485 41.4351 70.7536C40.2772 70.3497 39.1497 69.8339 38.0838 69.2205C37.6548 68.9736 37.1069 69.1214 36.8603 69.5501C36.6135 69.9791 36.7611 70.5268 37.1899 70.7736C38.3523 71.4425 39.5818 72.005 40.8448 72.4455C43.1322 73.2434 45.5309 73.648 47.9743 73.648C50.999 73.648 53.9263 73.0354 56.6751 71.8274C59.1117 70.7566 61.3021 69.2655 63.1971 67.3924C64.4201 68.0513 65.8169 68.4263 67.2996 68.4263C72.097 68.4263 76 64.5107 76 59.6976C76 54.8845 72.097 50.9688 67.2996 50.9688ZM67.2996 66.6342C63.4902 66.6342 60.3912 63.5224 60.3912 59.6975C60.3912 55.8726 63.4902 52.7608 67.2996 52.7608C71.1089 52.7608 74.208 55.8727 74.208 59.6975C74.208 63.5223 71.1089 66.6342 67.2996 66.6342Z" fill="#A2A2B5"/>
<path d="M28.7005 50.9688C28.4914 50.9688 28.2846 50.9788 28.0791 50.9935C28.32 45.4096 30.8662 40.1917 35.1519 36.5684C35.5298 36.2488 35.5772 35.6836 35.2576 35.3057C34.9381 34.9279 34.3728 34.8804 33.995 35.1999C29.2231 39.2344 26.429 45.0829 26.274 51.3168C22.6541 52.3735 20 55.7293 20 59.6975C20 64.5104 23.9031 68.4262 28.7005 68.4262C33.4979 68.4262 37.4009 64.5106 37.4009 59.6975C37.4008 54.8845 33.4979 50.9688 28.7005 50.9688ZM28.7005 66.6342C24.8912 66.6342 21.792 63.5224 21.792 59.6975C21.792 55.8726 24.8912 52.7608 28.7005 52.7608C32.5098 52.7608 35.6089 55.8726 35.6089 59.6975C35.6089 63.5224 32.5097 66.6342 28.7005 66.6342Z" fill="#A2A2B5"/>
</g>
<defs>
<clipPath id="clip0_1568_5034">
<rect width="56" height="56" fill="white" transform="translate(20 20)"/>
</clipPath>
</defs>
</svg>
