<svg width="64" height="64" viewBox="0 0 64 64" fill="none" xmlns="http://www.w3.org/2000/svg">
<path d="M45.5229 1.15298C45.4803 4.47074 44.2338 7.66003 42.0153 10.1274C40.9783 11.5028 39.6687 12.6495 38.1685 13.4959C36.6683 14.3423 35.0096 14.8702 33.2961 15.0466C33.1316 15.05 32.9681 15.0205 32.8151 14.9599C32.6621 14.8993 32.5228 14.8087 32.4052 14.6936C32.2877 14.5785 32.1943 14.441 32.1305 14.2893C32.0667 14.1376 32.0339 13.9747 32.0339 13.8102H32.0163C32.1287 10.4387 33.4493 7.21988 35.7373 4.74098C37.0068 3.31674 38.5479 2.1602 40.2701 1.33914C41.5083 0.715742 42.828 0.269393 44.1904 0.0131789C44.3546 -0.0118628 44.5223 -0.00113148 44.6821 0.0446382C44.8418 0.0904078 44.9897 0.170136 45.1157 0.278368C45.2418 0.3866 45.343 0.520782 45.4123 0.671733C45.4817 0.822685 45.5177 0.986843 45.5178 1.15298H45.5229ZM57.8984 49.85C56.963 52.0285 55.8077 54.1058 54.4502 56.0495C53.1725 57.9978 51.6828 59.7984 50.0083 61.4183C48.4862 62.9395 46.4503 63.8365 44.3005 63.9333C42.4786 63.8532 40.6887 63.4258 39.0272 62.674C37.2339 61.8924 35.3059 61.4659 33.3502 61.4183C31.3417 61.4582 29.3597 61.8845 27.5125 62.674C25.9166 63.3938 24.2117 63.842 22.4682 64C21.3711 63.9866 20.2882 63.751 19.2848 63.3072C18.2814 62.8635 17.3785 62.2209 16.6304 61.4183C14.8826 59.7415 13.3246 57.8775 11.9847 55.8598C9.8907 52.8578 8.23635 49.5721 7.07176 46.1022C5.7432 42.3663 5.04569 38.4354 5.00783 34.4706C4.90222 30.5811 5.86701 26.7374 7.79691 23.3589C9.20362 20.92 11.2155 18.8852 13.6382 17.4509C16.0267 16.0217 18.752 15.2525 21.5353 15.2222C23.6372 15.3468 25.7027 15.8279 27.6435 16.6448C29.1905 17.326 30.8189 17.8047 32.4884 18.0691C34.3294 17.6854 36.1287 17.123 37.8606 16.3901C40.1763 15.4492 42.6646 15.0076 45.1627 15.094C48.5069 15.2552 51.7267 16.4116 54.4093 18.4151C54.7826 18.7264 55.0848 19.1142 55.2953 19.5524C55.5059 19.9906 55.6199 20.4688 55.6296 20.9549C55.6394 21.4409 55.5446 21.9233 55.3518 22.3696C55.159 22.8159 54.8726 23.2155 54.512 23.5415C53.0782 24.8201 51.9435 26.3987 51.1884 28.1653C50.4334 29.9318 50.0765 31.8429 50.1432 33.7628C50.1191 35.681 50.503 37.5824 51.2694 39.3409C52.0359 41.0994 53.1674 42.675 54.5889 43.9631C55.2116 44.5567 55.8844 45.0955 56.5996 45.5735C57.2748 46.0231 57.7721 46.694 58.0061 47.4706C58.2401 48.2473 58.1961 49.0812 57.8817 49.8289C57.9021 49.8412 57.9001 49.8465 57.8984 49.85Z" fill="white"/>
</svg>
