<svg width="96" height="96" viewBox="0 0 96 96" fill="none" xmlns="http://www.w3.org/2000/svg">
<path d="M69.875 55.963V40.037C71.8696 39.6305 73.375 37.8628 73.375 35.75C73.375 33.3376 71.4124 31.375 69 31.375C67.7054 31.375 66.5408 31.9407 65.7391 32.8373L52.3284 25.0097C52.3587 24.8023 52.375 24.5906 52.375 24.375C52.375 21.9626 50.4124 20 48 20C45.5876 20 43.625 21.9626 43.625 24.375C43.625 24.5906 43.6413 24.8023 43.6716 25.0097L30.2609 32.8373C29.4592 31.9407 28.2947 31.375 27 31.375C24.5876 31.375 22.625 33.3376 22.625 35.75C22.625 37.8628 24.1304 39.6305 26.125 40.037V55.963C24.1304 56.3695 22.625 58.1372 22.625 60.25C22.625 62.6624 24.5876 64.625 27 64.625C28.2949 64.625 29.4596 64.059 30.2615 63.162L43.6717 70.9894C43.6414 71.197 43.625 71.4091 43.625 71.6249C43.625 74.0373 45.5876 75.9999 48 75.9999C50.4124 75.9999 52.375 74.0373 52.375 71.6249C52.375 71.409 52.3587 71.197 52.3283 70.9894L65.7385 63.162C66.5404 64.059 67.7051 64.625 69 64.625C71.4124 64.625 73.375 62.6624 73.375 60.25C73.375 58.1372 71.8696 56.3695 69.875 55.963ZM67.589 56.1098L59.5058 42.3005L65.739 38.6627C66.3552 39.3518 67.1856 39.8455 68.1249 40.0371V55.9632C67.9418 56.0003 67.7632 56.0503 67.589 56.1098ZM48.875 59.375V52.287C49.8143 52.0955 50.6447 51.6017 51.2609 50.9125L64.8569 58.8475C64.7987 59.019 64.7497 59.1947 64.713 59.3749H48.875V59.375ZM31.287 59.375C31.2502 59.1947 31.2013 59.0191 31.1431 58.8476L44.7391 50.9127C45.3553 51.6018 46.1857 52.0955 47.125 52.2871V59.375H31.287ZM27.875 55.963V40.037C28.8143 39.8455 29.6447 39.3517 30.2609 38.6625L36.4941 42.3004L28.411 56.1098C28.2368 56.0503 28.0582 56.0003 27.875 55.963ZM38.0048 43.1821L43.8569 46.5976C43.7074 47.0382 43.625 47.5096 43.625 48C43.625 48.4904 43.7074 48.9618 43.8569 49.4024L30.2609 57.3373C30.1534 57.2171 30.0395 57.1027 29.9195 56.995L38.0048 43.1821ZM47.125 28.662V43.713C46.1857 43.9045 45.3553 44.3983 44.7391 45.0875L38.8883 41.6728L46.5897 28.5155C46.7636 28.5749 46.942 28.6247 47.125 28.662ZM49.4103 28.5154L57.1117 41.6727L51.2609 45.0873C50.6447 44.3982 49.8143 43.9045 48.875 43.7129V28.662C49.058 28.6247 49.2364 28.5749 49.4103 28.5154ZM48 50.625C47.0629 50.625 46.2393 50.1308 45.7748 49.3898C45.7634 49.3655 45.7511 49.3414 45.7372 49.3178C45.7226 49.2928 45.7068 49.269 45.6902 49.2461C45.4893 48.8751 45.375 48.4506 45.375 48C45.375 47.5442 45.492 47.1153 45.6972 46.7413C45.7108 46.7218 45.725 46.7031 45.7372 46.6822C45.7508 46.659 45.7628 46.6352 45.7741 46.6112C46.2385 45.8696 47.0624 45.375 48 45.375C48.9378 45.375 49.7619 45.8698 50.2263 46.6117C50.2375 46.6354 50.2493 46.6591 50.2627 46.6822C50.2747 46.7027 50.2888 46.7211 50.3021 46.7402C50.5078 47.1144 50.625 47.5437 50.625 48C50.625 48.4497 50.5111 48.8734 50.3109 49.2438C50.2938 49.2674 50.2776 49.292 50.2627 49.3178C50.2492 49.341 50.2372 49.3648 50.2259 49.3888C49.7615 50.1304 48.9376 50.625 48 50.625ZM65.7391 57.3373L52.1431 49.4024C52.2926 48.9618 52.375 48.4904 52.375 48C52.375 47.5096 52.2926 47.0382 52.1431 46.5976L57.9952 43.1821L66.0805 56.9951C65.9605 57.1028 65.8466 57.2171 65.7391 57.3373ZM69 33.125C70.4473 33.125 71.625 34.3027 71.625 35.75C71.625 37.1973 70.4473 38.375 69 38.375C68.0622 38.375 67.2381 37.8802 66.7738 37.1383C66.7626 37.1145 66.7508 37.0909 66.7373 37.0678C66.7225 37.0425 66.7065 37.0183 66.6898 36.9951C66.4891 36.6243 66.375 36.2003 66.375 35.75C66.375 35.2942 66.492 34.8653 66.6972 34.4913C66.7108 34.4718 66.725 34.4531 66.7373 34.4322C66.7508 34.409 66.7628 34.3852 66.7741 34.3612C67.2385 33.6196 68.0624 33.125 69 33.125ZM64.8569 34.3475C64.7074 34.788 64.625 35.2595 64.625 35.75C64.625 36.2405 64.7074 36.7118 64.8569 37.1524L58.6223 40.7911L50.919 27.6304C51.2281 27.3531 51.4973 27.0324 51.7175 26.6781L64.8569 34.3475ZM48 21.75C49.4473 21.75 50.625 22.9277 50.625 24.375C50.625 24.6483 50.5829 24.912 50.5049 25.1601C50.5046 25.1612 50.5041 25.1622 50.5038 25.1633C50.3086 25.782 49.8898 26.3022 49.3428 26.6293C49.3368 26.6326 49.3307 26.6352 49.3247 26.6386C49.32 26.6414 49.3158 26.6446 49.3112 26.6475C48.925 26.8713 48.4774 27 48 27C47.5227 27 47.0751 26.8713 46.689 26.6476C46.6843 26.6447 46.6801 26.6414 46.6753 26.6386C46.6689 26.6349 46.6623 26.6322 46.6559 26.6286C46.1091 26.3012 45.6905 25.7807 45.4956 25.162L45.4955 25.1617C45.4173 24.9132 45.375 24.649 45.375 24.375C45.375 22.9277 46.5527 21.75 48 21.75ZM44.2826 26.6781C44.5028 27.0324 44.772 27.3531 45.0811 27.6304L37.3776 40.7911L31.143 37.1524C31.2925 36.7118 31.3749 36.2404 31.3749 35.75C31.3749 35.2595 31.2925 34.7882 31.143 34.3475L44.2826 26.6781ZM24.375 35.75C24.375 34.3027 25.5527 33.125 27 33.125C27.9378 33.125 28.7619 33.6198 29.2263 34.3617C29.2375 34.3854 29.2493 34.4091 29.2628 34.4322C29.2747 34.4527 29.2888 34.4711 29.3021 34.4902C29.5077 34.8645 29.625 35.2938 29.625 35.75C29.625 36.1997 29.5111 36.6233 29.311 36.9937C29.2939 37.0173 29.2777 37.0419 29.2628 37.0678C29.2492 37.091 29.2372 37.1148 29.2259 37.1388C28.7615 37.8804 27.9376 38.375 27 38.375C25.5527 38.375 24.375 37.1973 24.375 35.75ZM27 62.875C25.5527 62.875 24.375 61.6973 24.375 60.25C24.375 58.8027 25.5527 57.625 27 57.625C27.4803 57.625 27.9306 57.7554 28.3183 57.9816C28.3208 57.9831 28.3231 57.9848 28.3256 57.9864C28.328 57.9878 28.3307 57.9887 28.3331 57.9901C28.696 58.205 29.0028 58.5046 29.2262 58.8617C29.2374 58.8855 29.2492 58.9091 29.2628 58.9322C29.2748 58.9527 29.2888 58.9712 29.3021 58.9903C29.5077 59.3645 29.625 59.7938 29.625 60.25C29.625 60.6985 29.5117 61.1211 29.3125 61.4907C29.2948 61.515 29.2782 61.5404 29.2628 61.5669C29.2483 61.5917 29.2353 61.617 29.2236 61.6425C28.7588 62.382 27.9359 62.875 27 62.875ZM31.1433 61.6518C31.2014 61.4805 31.2503 61.305 31.287 61.125H47.125V67.338C45.9281 67.582 44.908 68.3165 44.283 69.3212L31.1433 61.6518ZM48 74.25C46.5527 74.25 45.375 73.0723 45.375 71.625C45.375 70.1777 46.5527 69 48 69C49.4473 69 50.625 70.1777 50.625 71.625C50.625 73.0723 49.4473 74.25 48 74.25ZM51.717 69.3212C51.092 68.3165 50.0719 67.582 48.875 67.338V61.125H64.713C64.7497 61.305 64.7986 61.4805 64.8567 61.6518L51.717 69.3212ZM69 62.875C68.0637 62.875 67.2408 62.3818 66.7761 61.6419C66.7644 61.6165 66.7516 61.5915 66.7373 61.5669C66.7219 61.5406 66.7054 61.5156 66.6879 61.4915C66.4884 61.1216 66.375 60.6989 66.375 60.25C66.375 59.7942 66.492 59.3653 66.6973 58.9912C66.7109 58.9717 66.7251 58.953 66.7373 58.9322C66.7508 58.909 66.7628 58.8852 66.7741 58.8612C66.9976 58.5043 67.3043 58.2049 67.6669 57.9901C67.6693 57.9887 67.672 57.9878 67.6744 57.9864C67.6769 57.985 67.6791 57.9831 67.6816 57.9817C68.0693 57.7554 68.5196 57.625 69 57.625C70.4473 57.625 71.625 58.8027 71.625 60.25C71.625 61.6973 70.4473 62.875 69 62.875Z" fill="#A2A2B5"/>
</svg>
