<svg width="96" height="96" viewBox="0 0 96 96" fill="none" xmlns="http://www.w3.org/2000/svg">
<g clip-path="url(#clip0_1568_5021)">
<path d="M27.6729 60.4399C28.0815 60.1179 28.4892 59.8002 28.8917 59.4879L29.0877 59.3356C25.5606 56.477 22.625 53.3821 22.625 48C22.625 41.6475 26.7104 38.4817 31.0364 35.1296C35.5041 31.6664 40.125 28.085 40.125 20.875H38.375C38.375 27.2275 34.2896 30.3932 29.9636 33.7454C25.4959 37.2086 20.875 40.79 20.875 48C20.875 53.9719 24.046 57.45 27.6729 60.4399Z" fill="#A2A2B5"/>
<path d="M33.3271 62.6852C32.9185 63.0072 32.5107 63.3248 32.1082 63.6372L31.9122 63.7894C35.4394 66.6481 38.375 69.7429 38.375 75.1251H40.125C40.125 69.1532 36.954 65.6751 33.3271 62.6852Z" fill="#A2A2B5"/>
<path d="M27.6729 33.3149C28.0815 32.9929 28.4892 32.6752 28.8917 32.3629L29.0877 32.2106C27.4665 30.9694 26.0244 29.5105 24.802 27.875H33.9746C34.448 27.3304 34.872 26.7448 35.2416 26.125H23.7669C22.9908 24.485 22.6002 22.6892 22.625 20.875H20.875C20.875 26.8469 24.046 30.325 27.6729 33.3149Z" fill="#A2A2B5"/>
<path d="M55 38.3751H36.3328C35.4004 37.3652 34.3959 36.4244 33.3271 35.5602C32.9185 35.8822 32.5108 36.1998 32.1083 36.5122L31.9123 36.6644C32.6735 37.2769 33.3875 37.9209 34.0691 38.5807C33.7859 38.7276 33.5483 38.9491 33.3819 39.2213C33.2155 39.4935 33.1266 39.806 33.125 40.1251V41.0001H27.0254C26.552 41.5446 26.128 42.1303 25.7584 42.7501H33.125V47.1251H24.4109C24.3899 47.4103 24.375 47.6991 24.375 48.0001C24.375 48.3011 24.3872 48.5907 24.4065 48.8751H33.125V53.2501H25.7435C26.1145 53.8702 26.5403 54.4559 27.0157 55.0001H33.125V55.8751C33.1267 56.1954 33.2163 56.5091 33.384 56.7821C33.5517 57.055 33.7911 57.2767 34.0761 57.4229C32.769 58.646 31.3961 59.7969 29.9636 60.8704C25.4959 64.3337 20.875 67.9151 20.875 75.1251H22.625C22.601 73.3107 22.9925 71.5148 23.7695 69.8751H35.2565C34.8855 69.2549 34.4597 68.6692 33.9843 68.1251H24.8011C26.3936 65.8597 28.6765 64.0826 31.0364 62.2547C32.9216 60.8672 34.6823 59.3181 36.2986 57.6251H55C55.4641 57.6251 55.9092 57.4407 56.2374 57.1125C56.5656 56.7843 56.75 56.3392 56.75 55.8751V40.1251C56.75 39.6609 56.5656 39.2158 56.2374 38.8876C55.9092 38.5594 55.4641 38.3751 55 38.3751ZM34.875 55.8751V40.1251H55V55.8751H34.875Z" fill="#A2A2B5"/>
<path d="M41.875 42.75H40.125C39.9318 42.75 39.744 42.8139 39.5909 42.9319C39.4379 43.0498 39.3282 43.215 39.2789 43.4019L36.6871 53.25H38.4966L39.418 49.75H42.582L43.5034 53.25H45.3129L42.7211 43.4019C42.6719 43.215 42.5621 43.0498 42.4091 42.9319C42.256 42.8139 42.0682 42.75 41.875 42.75ZM39.8783 48L40.7996 44.5H41.2004L42.1218 48H39.8783Z" fill="#A2A2B5"/>
<path d="M47.125 44.5H49.3125V51.5H47.125V53.25H53.25V51.5H51.0625V44.5H53.25V42.75H47.125V44.5Z" fill="#A2A2B5"/>
<path d="M48.875 35.7499V29.0448C49.58 28.8346 50.1857 28.3777 50.5815 27.7577C50.9773 27.1376 51.1366 26.3958 51.0304 25.6679C50.9242 24.9399 50.5596 24.2746 50.0031 23.7934C49.4467 23.3123 48.7356 23.0475 48 23.0475C47.2644 23.0475 46.5533 23.3123 45.9969 23.7934C45.4405 24.2746 45.0758 24.9399 44.9696 25.6679C44.8634 26.3958 45.0227 27.1376 45.4185 27.7577C45.8143 28.3777 46.4201 28.8346 47.125 29.0448V35.7499H48.875ZM46.6875 26.1249C46.6875 25.8654 46.7645 25.6116 46.9087 25.3958C47.0529 25.1799 47.2579 25.0117 47.4977 24.9124C47.7376 24.813 48.0015 24.787 48.2561 24.8377C48.5107 24.8883 48.7445 25.0133 48.9281 25.1969C49.1116 25.3804 49.2366 25.6143 49.2873 25.8689C49.3379 26.1235 49.3119 26.3874 49.2126 26.6272C49.1133 26.867 48.945 27.072 48.7292 27.2163C48.5134 27.3605 48.2596 27.4374 48 27.4374C47.6519 27.4374 47.3181 27.2992 47.0719 27.053C46.8258 26.8069 46.6875 26.473 46.6875 26.1249Z" fill="#A2A2B5"/>
<path d="M65.6426 32.25H62C61.7679 32.2501 61.5454 32.3423 61.3813 32.5064L57.8813 36.0064L59.1186 37.2436L62.3622 34H65.6426C65.8528 34.705 66.3097 35.3107 66.9298 35.7065C67.5498 36.1023 68.2917 36.2616 69.0196 36.1554C69.7475 36.0492 70.4128 35.6846 70.894 35.1281C71.3752 34.5717 71.6399 33.8606 71.6399 33.125C71.6399 32.3894 71.3752 31.6783 70.894 31.1219C70.4128 30.5655 69.7475 30.2008 69.0196 30.0946C68.2917 29.9884 67.5498 30.1477 66.9298 30.5435C66.3097 30.9393 65.8528 31.5451 65.6426 32.25ZM69.875 33.125C69.875 33.3846 69.798 33.6384 69.6538 33.8542C69.5096 34.07 69.3046 34.2383 69.0647 34.3376C68.8249 34.4369 68.561 34.4629 68.3064 34.4123C68.0518 34.3616 67.818 34.2366 67.6344 34.0531C67.4508 33.8695 67.3258 33.6357 67.2752 33.3811C67.2246 33.1265 67.2505 32.8626 67.3499 32.6227C67.4492 32.3829 67.6174 32.1779 67.8333 32.0337C68.0491 31.8895 68.3029 31.8125 68.5625 31.8125C68.9106 31.8125 69.2444 31.9508 69.4906 32.1969C69.7367 32.4431 69.875 32.7769 69.875 33.125Z" fill="#A2A2B5"/>
<path d="M48.875 66.9551V60.25H47.125V66.9551C46.4201 67.1653 45.8143 67.6222 45.4185 68.2423C45.0227 68.8624 44.8634 69.6042 44.9696 70.3321C45.0758 71.06 45.4405 71.7254 45.9969 72.2065C46.5533 72.6877 47.2644 72.9525 48 72.9525C48.7356 72.9525 49.4467 72.6877 50.0031 72.2065C50.5596 71.7254 50.9242 71.06 51.0304 70.3321C51.1366 69.6042 50.9773 68.8624 50.5815 68.2423C50.1857 67.6222 49.58 67.1653 48.875 66.9551ZM48 71.1875C47.7404 71.1875 47.4867 71.1105 47.2708 70.9663C47.055 70.8221 46.8868 70.6171 46.7874 70.3773C46.6881 70.1374 46.6621 69.8735 46.7127 69.6189C46.7634 69.3643 46.8884 69.1305 47.0719 68.9469C47.2555 68.7634 47.4894 68.6384 47.744 68.5877C47.9986 68.5371 48.2625 68.5631 48.5023 68.6624C48.7421 68.7617 48.9471 68.93 49.0913 69.1458C49.2355 69.3617 49.3125 69.6154 49.3125 69.875C49.3125 70.2231 49.1742 70.5569 48.9281 70.8031C48.6819 71.0492 48.3481 71.1875 48 71.1875Z" fill="#A2A2B5"/>
<path d="M68.5625 59.8125C67.9053 59.8148 67.2664 60.0289 66.7405 60.4229C66.2145 60.817 65.8295 61.37 65.6426 62H62.3622L59.1186 58.7563L57.8813 59.9936L61.3813 63.4936C61.5454 63.6577 61.7679 63.7499 62 63.75H65.6426C65.806 64.2927 66.1171 64.7793 66.5411 65.1554C66.9651 65.5314 67.4853 65.7822 68.0436 65.8797C68.602 65.9771 69.1764 65.9174 69.7027 65.7072C70.2291 65.497 70.6866 65.1446 71.0242 64.6894C71.3618 64.2341 71.5662 63.694 71.6145 63.1293C71.6628 62.5645 71.5531 61.9975 71.2977 61.4916C71.0423 60.9856 70.6512 60.5606 70.1682 60.2641C69.6852 59.9676 69.1292 59.8112 68.5625 59.8125ZM68.5625 64.1875C68.3029 64.1875 68.0491 64.1105 67.8333 63.9663C67.6174 63.8221 67.4492 63.6171 67.3499 63.3772C67.2505 63.1374 67.2246 62.8735 67.2752 62.6189C67.3258 62.3643 67.4508 62.1305 67.6344 61.9469C67.818 61.7633 68.0518 61.6383 68.3064 61.5877C68.561 61.5371 68.8249 61.563 69.0647 61.6624C69.3046 61.7617 69.5096 61.9299 69.6538 62.1458C69.798 62.3616 69.875 62.6154 69.875 62.875C69.875 63.2231 69.7367 63.5569 69.4906 63.8031C69.2444 64.0492 68.9106 64.1875 68.5625 64.1875Z" fill="#A2A2B5"/>
<path d="M72.0625 44.9375C71.4053 44.9399 70.7664 45.1539 70.2405 45.548C69.7146 45.942 69.3296 46.495 69.1426 47.125H59.375V48.875H69.1426C69.306 49.4177 69.6171 49.9043 70.0411 50.2804C70.4651 50.6565 70.9853 50.9073 71.5437 51.0047C72.102 51.1022 72.6764 51.0425 73.2028 50.8323C73.7291 50.6221 74.1867 50.2697 74.5242 49.8144C74.8618 49.3592 75.0662 48.819 75.1145 48.2543C75.1628 47.6896 75.0531 47.1226 74.7977 46.6166C74.5423 46.1106 74.1513 45.6857 73.6682 45.3891C73.1852 45.0926 72.6293 44.9363 72.0625 44.9375ZM72.0625 49.3125C71.8029 49.3125 71.5492 49.2355 71.3333 49.0913C71.1175 48.9471 70.9492 48.7421 70.8499 48.5023C70.7506 48.2625 70.7246 47.9986 70.7752 47.744C70.8259 47.4894 70.9509 47.2555 71.1344 47.0719C71.318 46.8884 71.5518 46.7634 71.8064 46.7127C72.061 46.6621 72.3249 46.6881 72.5648 46.7874C72.8046 46.8868 73.0096 47.055 73.1538 47.2708C73.298 47.4867 73.375 47.7404 73.375 48C73.375 48.3481 73.2367 48.6819 72.9906 48.9281C72.7444 49.1742 72.4106 49.3125 72.0625 49.3125Z" fill="#A2A2B5"/>
</g>
<defs>
<clipPath id="clip0_1568_5021">
<rect width="56" height="56" fill="white" transform="translate(20 20)"/>
</clipPath>
</defs>
</svg>
