<svg width="96" height="96" viewBox="0 0 96 96" fill="none" xmlns="http://www.w3.org/2000/svg">
<path d="M67.255 27.8751L64.6446 27.8604C64.6429 27.8604 64.6413 27.8604 64.6395 27.8604C64.6346 27.8604 64.6299 27.8611 64.6251 27.8611V26.1249C64.6251 25.6417 64.2334 25.2499 63.7502 25.2499H61.1252V23.5001C61.1252 23.0168 60.7335 22.6251 60.2502 22.6251H38.4672C38.3559 21.159 37.1283 20 35.6343 20C34.1402 20 32.9127 21.159 32.8014 22.625H28.75C28.2667 22.625 27.875 23.0167 27.875 23.4999V68.1252C27.875 68.6084 28.2667 69.0001 28.75 69.0001H30.4999V71.6251C30.4999 72.1084 30.8916 72.5001 31.3748 72.5001H33.1249V75.125C33.1249 75.6083 33.5166 76 33.9998 76H67.25C67.7333 76 68.125 75.6083 68.125 75.125V28.75C68.1252 28.2687 67.7365 27.8777 67.255 27.8751ZM35.6343 21.75C36.1621 21.75 36.6035 22.1265 36.7045 22.625H34.5641C34.6649 22.1265 35.1063 21.75 35.6343 21.75ZM29.625 67.2502V24.375H32.7924V30.7098C32.7924 32.2769 34.0673 33.5518 35.6343 33.5518C37.2014 33.5518 38.4762 32.2768 38.4762 30.7098V26.7759C38.4762 26.2926 38.0845 25.9009 37.6011 25.9009C37.1179 25.9009 36.7262 26.2926 36.7262 26.7759V30.7098C36.7262 31.3119 36.2363 31.8018 35.6342 31.8018C35.032 31.8018 34.5423 31.3119 34.5423 30.7098V24.375H59.3749V67.2502H29.625ZM32.2498 70.7503V69.0002H60.25C60.7333 69.0002 61.125 68.6085 61.125 68.1253V27H62.875V70.7503H32.2498ZM34.875 74.2503V72.5003H63.7501C64.2333 72.5003 64.625 72.1086 64.625 71.6253V29.61C64.6283 29.6101 64.6314 29.6106 64.6347 29.6106L66.3751 29.6203V74.2503H34.875Z" fill="#A2A2B5"/>
<path d="M50.6251 39.2501H38.3748C37.8916 39.2501 37.4998 39.6418 37.4998 40.1252C37.4999 40.6083 37.8916 41.0001 38.3748 41.0001H50.6251C51.1084 41.0001 51.5001 40.6084 51.5001 40.1252C51.5001 39.6419 51.1084 39.2501 50.6251 39.2501Z" fill="#A2A2B5"/>
<path d="M50.6251 42.7501H38.3748C37.8916 42.7501 37.4998 43.1418 37.4998 43.6252C37.4999 44.1083 37.8916 44.5002 38.3748 44.5002H50.6251C51.1084 44.5002 51.5001 44.1084 51.5001 43.6252C51.5001 43.1419 51.1084 42.7501 50.6251 42.7501Z" fill="#A2A2B5"/>
<path d="M47.125 46.2501H41.875C41.3917 46.2501 41 46.6418 41 47.1252C41 47.6084 41.3917 48.0002 41.875 48.0002H47.125C47.6083 48.0002 48 47.6084 48 47.1252C48 46.6419 47.6084 46.2501 47.125 46.2501Z" fill="#A2A2B5"/>
</svg>
