<svg width="96" height="96" viewBox="0 0 96 96" fill="none" xmlns="http://www.w3.org/2000/svg">
<path d="M73.7032 40.944C73.7029 36.354 72.0097 31.9254 68.9478 28.506C65.8858 25.0865 61.6703 22.9165 57.1082 22.4114C52.5461 21.9063 47.9579 23.1015 44.2221 25.7683C40.4863 28.4351 37.8653 32.386 36.8609 36.8648C33.6038 37.5954 30.6026 39.187 28.1706 41.4734C25.7386 43.7598 23.965 46.6572 23.035 49.863C22.1049 53.0688 22.0526 56.4655 22.8833 59.6985C23.7141 62.9315 25.3975 65.8821 27.7579 68.2424C30.1182 70.6027 33.0689 72.2861 36.3019 73.1168C39.5349 73.9475 42.9316 73.8951 46.1374 72.965C49.3432 72.0348 52.2405 70.2612 54.5269 67.8291C56.8132 65.3971 58.4048 62.3958 59.1353 59.1388C63.2673 58.2082 66.9601 55.9003 69.6074 52.594C72.2546 49.2877 73.6989 45.1795 73.7032 40.944ZM67.6841 52.4892L64.934 49.7391C66.9127 47.514 68.0771 44.683 68.2367 41.7096H72.1549C71.9733 45.7156 70.391 49.5306 67.6841 52.4892ZM53.5695 66.599L50.8053 63.8349C52.7878 61.6166 53.9599 58.7918 54.1303 55.8216H58.0407C57.8642 59.8282 56.281 63.6442 53.5695 66.599ZM23.8475 55.8216H27.7565C27.927 58.7918 29.0991 61.6166 31.0815 63.8349L28.317 66.5986C25.6062 63.6436 24.0236 59.8278 23.8475 55.8216ZM28.3183 43.513L31.0828 46.2776C29.1003 48.4957 27.9282 51.3203 27.7578 54.2904H23.8475C24.0241 50.284 25.6071 46.468 28.3183 43.513ZM40.1785 37.9594V41.8689C37.2082 42.0391 34.3834 43.2112 32.1652 45.1939L29.4011 42.4306C32.3559 39.7191 36.1719 38.1359 40.1785 37.9594ZM52.4871 42.4302L49.723 45.1948C47.5048 43.2121 44.68 42.0399 41.7097 41.8698V37.9594C45.7161 38.136 49.5321 39.719 52.4871 42.4302ZM58.0407 54.2904H54.1317C53.9613 51.3203 52.7892 48.4957 50.8067 46.2776L53.5708 43.513C56.2819 46.468 57.8646 50.284 58.0407 54.2904ZM40.9441 66.736C38.6338 66.736 36.3753 66.0509 34.4543 64.7673C32.5334 63.4838 31.0362 61.6594 30.152 59.5249C29.2679 57.3905 29.0366 55.0418 29.4873 52.7758C29.938 50.5099 31.0506 48.4285 32.6842 46.7948C34.3179 45.1612 36.3993 44.0486 38.6652 43.5979C40.9311 43.1472 43.2798 43.3785 45.4143 44.2626C47.5488 45.1468 49.3731 46.644 50.6567 48.565C51.9402 50.4859 52.6253 52.7444 52.6253 55.0547C52.6222 58.1518 51.3905 61.1212 49.2005 63.3111C47.0106 65.5011 44.0412 66.7328 40.9441 66.736ZM32.1652 64.9173C34.3835 66.8998 37.2083 68.0719 40.1785 68.2423V72.1513C36.1719 71.9748 32.3559 70.3917 29.4011 67.6801L32.1652 64.9173ZM41.7097 68.2423C44.6799 68.0719 47.5047 66.8998 49.723 64.9173L52.4871 67.6818C49.5321 70.393 45.7161 71.976 41.7097 72.1526V68.2423ZM44.1746 36.6933C44.8811 34.8855 46.0269 33.2822 47.5085 32.0284C48.9902 30.7746 50.7608 29.9097 52.6606 29.5119C54.5603 29.1142 56.5293 29.196 58.3894 29.7502C60.2496 30.3043 61.9424 31.3132 63.3147 32.6857C64.6871 34.0582 65.6959 35.7511 66.2499 37.6113C66.8038 39.4715 66.8855 41.4404 66.4876 43.3401C66.0897 45.2399 65.2246 47.0105 63.9707 48.492C62.7167 49.9735 61.1134 51.1192 59.3055 51.8255C58.6359 48.0577 56.8257 44.5863 54.1198 41.8804C51.4138 39.1744 47.9424 37.3643 44.1746 36.6946V36.6933ZM72.1527 40.1771H68.2437C68.0732 37.2069 66.9011 34.3822 64.9187 32.1638L67.6832 29.4001C70.3943 32.3554 71.9768 36.1718 72.1527 40.1784V40.1771ZM63.835 31.0815C61.6166 29.099 58.7919 27.9269 55.8217 27.7565V23.8474C59.8282 24.024 63.6443 25.6071 66.5991 28.3186L63.835 31.0815ZM54.2905 27.7635C51.3171 27.923 48.4861 29.0874 46.261 31.0661L43.5109 28.316C46.4695 25.6091 50.2845 24.0268 54.2905 23.8452V27.7635ZM42.4277 29.398L45.1839 32.1542C44.0617 33.4221 43.1935 34.8939 42.6267 36.4894C42.0724 36.4395 41.5124 36.4098 40.945 36.4098C40.13 36.4113 39.3159 36.4663 38.5081 36.5743C39.2114 33.8989 40.5568 31.4356 42.4277 29.398ZM59.5912 55.056C59.5912 54.4873 59.5615 53.9286 59.5116 53.3738C61.1073 52.8077 62.5791 51.9398 63.8468 50.8175L66.603 53.5738C64.5656 55.4444 62.1028 56.7901 59.428 57.4942C59.5356 56.6859 59.5901 55.8714 59.5912 55.056Z" fill="#A2A2B5"/>
</svg>
