<svg width="96" height="96" viewBox="0 0 96 96" fill="none" xmlns="http://www.w3.org/2000/svg">
<path d="M80 28.156C77.62 29.2 75.084 29.892 72.44 30.228C75.16 28.604 77.236 26.052 78.212 22.976C75.676 24.488 72.876 25.556 69.892 26.152C67.484 23.588 64.052 22 60.308 22C53.044 22 47.196 27.896 47.196 35.124C47.196 36.164 47.284 37.164 47.5 38.116C36.592 37.584 26.94 32.356 20.456 24.392C19.324 26.356 18.66 28.604 18.66 31.024C18.66 35.568 21 39.596 24.488 41.928C22.38 41.888 20.312 41.276 18.56 40.312C18.56 40.352 18.56 40.404 18.56 40.456C18.56 46.832 23.108 52.128 29.072 53.348C28.004 53.64 26.84 53.78 25.632 53.78C24.792 53.78 23.944 53.732 23.148 53.556C24.848 58.752 29.672 62.572 35.408 62.696C30.944 66.188 25.276 68.292 19.14 68.292C18.064 68.292 17.032 68.244 16 68.112C21.812 71.86 28.7 74 36.128 74C60.272 74 73.472 54 73.472 36.664C73.472 36.084 73.452 35.524 73.424 34.968C76.028 33.12 78.216 30.812 80 28.156Z" fill="#6E798F"/>
</svg>
