<svg width="96" height="96" viewBox="0 0 96 96" fill="none" xmlns="http://www.w3.org/2000/svg">
<path fill-rule="evenodd" clip-rule="evenodd" d="M53.6889 60.1409C53.6832 60.0714 53.6735 59.9846 53.6574 59.9127C53.5469 59.4238 53.2666 58.7439 52.8864 57.9299C51.3135 54.5633 48.0636 49.0588 46.9281 45.1468C46.0531 42.1327 47.0129 40.0845 48.1639 39.0788C48.7144 38.5978 49.3218 38.3461 49.8384 38.3057C50.303 38.2693 50.7077 38.3965 51.0017 38.6528C51.2954 38.9088 51.4975 39.3025 51.4975 39.8584C51.4975 42.3362 53.0419 44.8189 55.2521 47.1641C58.6992 50.8222 63.7874 54.1141 67.6671 56.4284C70.8221 58.3104 72.8313 61.9663 74.0776 65.6958C75.9087 71.1748 76.1116 76.7796 76.1116 76.7796C76.117 76.9318 76.0604 77.0798 75.9545 77.1895C75.8488 77.2991 75.7028 77.3611 75.5505 77.3611H55.3093C55.0519 77.3611 54.8277 77.1865 54.7646 76.937C54.2958 75.0762 52.2653 73.6941 49.6562 72.6025C43.2209 69.9101 33.1833 69.1955 31.4554 69.4423C29.8555 69.6709 26.9452 69.0691 24.8169 67.6061C23.3375 66.5894 22.2413 65.1669 22.1262 63.3681C21.6509 55.9341 16.5203 51.9516 16.5203 51.9516C16.3756 51.8397 16.2942 51.6643 16.3029 51.4816C16.367 50.0898 16.8486 49.1965 17.6287 48.6785C18.7028 47.965 20.4773 47.9887 22.8352 48.637C23.0376 48.6926 23.2866 48.8259 23.563 49.0456C24.0573 49.4377 24.6973 50.1383 25.4162 51.0179C27.6879 53.7972 30.824 58.43 32.7524 60.1096C33.7511 60.9792 35.2113 61.1474 36.7422 60.9515C39.1858 60.6389 41.8172 59.374 43.2829 58.1139C44.0086 57.4898 45.0417 57.3405 46.2188 57.52C47.7521 57.7542 49.5527 58.5386 51.0879 59.2069C52.0403 59.6216 52.8816 59.9905 53.4706 60.1148C53.5391 60.1293 53.6221 60.1369 53.6889 60.1409Z" fill="#6E798F"/>
<path fill-rule="evenodd" clip-rule="evenodd" d="M51.167 77.3611C50.8571 77.3611 50.6057 77.1097 50.6057 76.7998C50.6057 76.4899 50.8571 76.2385 51.167 76.2385H79.4386C79.7485 76.2385 79.9999 76.4899 79.9999 76.7998C79.9999 77.1097 79.7485 77.3611 79.4386 77.3611H51.167Z" fill="#6E798F"/>
<path fill-rule="evenodd" clip-rule="evenodd" d="M28.1724 52.7409C29.2923 52.3073 30.5432 51.912 31.3492 51.912C32.1808 51.912 33.2894 52.3757 34.491 53.1397C36.5821 54.4695 39.0195 56.6922 40.7997 58.4359C39.5506 59.1085 38.0389 59.6534 36.5996 59.8377C35.4123 59.9894 34.2644 59.9374 33.4899 59.2629C32.0884 58.0422 30.0452 55.2295 28.1724 52.7409Z" fill="#6E798F"/>
<path fill-rule="evenodd" clip-rule="evenodd" d="M35.8185 52.6775C36.7086 52.3143 37.7571 52.0084 38.8918 51.9125C39.8415 51.8325 40.9824 52.3582 42.1204 53.2397C43.201 54.0766 44.2983 55.2235 45.2458 56.3292C44.1832 56.3483 43.2597 56.6531 42.5508 57.2626C42.3182 57.4626 42.053 57.6625 41.7623 57.8579C41.7135 57.7771 41.6545 57.7016 41.5855 57.634C39.9571 56.039 37.7908 54.058 35.8185 52.6775Z" fill="#6E798F"/>
<path fill-rule="evenodd" clip-rule="evenodd" d="M43.8113 53.203C44.845 52.9653 45.9083 52.7904 46.7434 52.8066C47.3826 52.8187 48.1336 53.2768 48.8647 54.0583C49.8612 55.1235 50.8858 56.7854 51.6888 58.2441C51.6382 58.222 51.5872 58.1999 51.536 58.1775C49.9146 57.4715 48.0078 56.6571 46.388 56.41C46.3807 56.4089 46.3732 56.4079 46.3659 56.4068C46.3858 56.1176 46.2934 55.8263 46.0983 55.5986C45.3947 54.7775 44.6111 53.9365 43.8113 53.203Z" fill="#6E798F"/>
<path fill-rule="evenodd" clip-rule="evenodd" d="M47.6489 42.3901L43.9329 46.8176C43.422 47.426 42.6903 47.8068 41.8989 47.876C41.1072 47.9453 40.3209 47.6971 39.7121 47.1862L25.3995 35.1736C25.1619 34.9742 25.1309 34.6201 25.3303 34.3827L37.3429 20.0698C37.8538 19.4613 38.5854 19.0806 39.3769 19.0113C40.1686 18.9423 40.9552 19.1905 41.5637 19.7012L54.0118 30.149C54.6202 30.6596 55.001 31.3912 55.0703 32.183C55.1392 32.9744 54.8913 33.761 54.3804 34.3695L50.3035 39.227C50.2073 39.3415 50.0696 39.4129 49.9206 39.4256C49.1009 39.4946 48.0367 40.4528 47.7732 42.1168C47.7573 42.2176 47.7144 42.3119 47.6489 42.3901ZM42.8197 27.4364C42.8197 27.4364 44.8674 29.2796 46.6643 30.8515C47.5433 31.6203 48.3622 32.3225 48.8371 32.7278C48.4401 33.2094 47.7557 34.0434 47.0238 34.9526C45.5268 36.8122 43.8283 38.9818 43.8283 38.9818C43.696 39.1394 43.7165 39.3744 43.8741 39.5067C44.0318 39.639 44.267 39.6186 44.3991 39.4609C44.3991 39.4609 46.2412 37.4118 47.8131 35.615C49.0125 34.2442 50.051 33.0194 50.051 33.0194C50.2502 32.7823 50.2195 32.4284 49.982 32.2293C49.982 32.2293 48.7476 31.2021 47.3288 30.0598C45.4692 28.5628 43.2988 26.8654 43.2988 26.8654C43.1412 26.7334 42.9059 26.7539 42.7736 26.9115C42.6416 27.0689 42.6621 27.3041 42.8197 27.4364Z" fill="#6E798F"/>
<path fill-rule="evenodd" clip-rule="evenodd" d="M32.6534 42.7277L30.6496 45.1156C30.1387 45.724 29.4071 46.1048 28.6156 46.174C27.8242 46.243 27.0376 45.9951 26.4288 45.4842L17.07 37.6293C15.8027 36.5657 15.6375 34.6759 16.7011 33.4085L24.5563 24.0497C25.0669 23.4412 25.7985 23.0604 26.5903 22.9912C27.3817 22.9219 28.1683 23.1701 28.7768 23.681L31.1643 25.6849L24.4703 33.6607C23.8723 34.3732 23.965 35.4358 24.6775 36.0337L32.6534 42.7277ZM22.9219 31.0382C22.9219 31.0382 21.7761 32.2552 20.8071 33.3339C20.0685 34.156 19.4368 34.8979 19.4368 34.8979C19.2379 35.1353 19.2687 35.4889 19.5058 35.688C19.5058 35.688 20.2574 36.3081 21.1275 36.9896C22.269 37.8837 23.6075 38.885 23.6075 38.885C23.7651 39.0171 24.0003 38.9966 24.1327 38.8392C24.2647 38.6816 24.2442 38.4463 24.0866 38.314C24.0866 38.314 22.8686 37.1696 21.7899 36.2003C21.3528 35.8074 20.9383 35.4444 20.6462 35.1908C20.8903 34.8906 21.2358 34.4614 21.5985 33.9984C22.4929 32.8569 23.4929 31.5173 23.4929 31.5173C23.625 31.3597 23.6045 31.1245 23.4471 30.9924C23.2895 30.8601 23.0542 30.8806 22.9219 31.0382Z" fill="#6E798F"/>
</svg>
