<svg width="96" height="96" viewBox="0 0 96 96" fill="none" xmlns="http://www.w3.org/2000/svg">
<path d="M54.125 38.5938C54.7291 38.5938 55.2188 38.1041 55.2188 37.5C55.2188 36.8959 54.7291 36.4062 54.125 36.4062C53.5209 36.4062 53.0312 36.8959 53.0312 37.5C53.0312 38.1041 53.5209 38.5938 54.125 38.5938Z" fill="#A2A2B5"/>
<path d="M37.5 34.875C36.0747 34.8852 34.7052 35.4303 33.6626 36.4022C32.62 37.3742 31.9804 38.7022 31.8704 40.1233C31.7603 41.5444 32.1879 42.955 33.0684 44.0759C33.949 45.1967 35.2183 45.9461 36.625 46.1756V53.25H34.4375C34.2055 53.25 33.9829 53.3422 33.8188 53.5063C33.6547 53.6704 33.5625 53.8929 33.5625 54.125C33.5625 54.3571 33.6547 54.5796 33.8188 54.7437C33.9829 54.9078 34.2055 55 34.4375 55H36.625V56.75H34C33.768 56.75 33.5454 56.8422 33.3813 57.0063C33.2172 57.1704 33.125 57.3929 33.125 57.625C33.125 57.8571 33.2172 58.0796 33.3813 58.2437C33.5454 58.4078 33.768 58.5 34 58.5H36.625V61.125C36.625 61.3571 36.7172 61.5796 36.8813 61.7437C37.0454 61.9078 37.268 62 37.5 62C37.7321 62 37.9546 61.9078 38.1187 61.7437C38.2828 61.5796 38.375 61.3571 38.375 61.125V46.1756C39.7818 45.9461 41.0511 45.1967 41.9316 44.0759C42.8121 42.955 43.2397 41.5444 43.1297 40.1233C43.0196 38.7022 42.38 37.3742 41.3374 36.4022C40.2949 35.4303 38.9253 34.8852 37.5 34.875ZM37.5 44.5C36.7213 44.5 35.96 44.2691 35.3125 43.8364C34.6649 43.4038 34.1603 42.7888 33.8622 42.0693C33.5642 41.3498 33.4863 40.5581 33.6382 39.7943C33.7901 39.0305 34.1651 38.3289 34.7158 37.7783C35.2665 37.2276 35.9681 36.8526 36.7319 36.7007C37.4957 36.5487 38.2874 36.6267 39.0068 36.9247C39.7263 37.2227 40.3413 37.7274 40.7739 38.3749C41.2066 39.0225 41.4375 39.7837 41.4375 40.5625C41.4375 41.6068 41.0227 42.6083 40.2843 43.3467C39.5458 44.0852 38.5443 44.5 37.5 44.5Z" fill="#A2A2B5"/>
<path d="M63.4219 39.8669C63.5033 39.9488 63.6001 40.0138 63.7067 40.0581C63.8134 40.1024 63.9277 40.1251 64.0432 40.125C64.2749 40.1241 64.4967 40.0312 64.66 39.8669L68.16 36.3669C68.3106 36.2002 68.3912 35.982 68.3853 35.7574C68.3794 35.5329 68.2873 35.3192 68.1282 35.1607C67.9691 35.0022 67.7551 34.9109 67.5306 34.9057C67.306 34.9006 67.0881 34.982 66.9219 35.1332L64.0432 38.0119L62.3282 36.2969C62.164 36.1327 61.9413 36.0405 61.7091 36.0405C61.4769 36.0405 61.2542 36.1327 61.09 36.2969C60.9259 36.4611 60.8336 36.6838 60.8336 36.916C60.8336 37.1482 60.9259 37.3708 61.09 37.535L63.4219 39.8669Z" fill="#A2A2B5"/>
<path d="M64.625 45.375C66.1825 45.375 67.7051 44.9131 69.0001 44.0478C70.2952 43.1825 71.3045 41.9526 71.9006 40.5136C72.4966 39.0747 72.6525 37.4913 72.3487 35.9637C72.0448 34.4361 71.2948 33.0329 70.1935 31.9315C69.0921 30.8302 67.6889 30.0802 66.1613 29.7763C64.6337 29.4725 63.0503 29.6284 61.6114 30.2245C60.1724 30.8205 58.9425 31.8299 58.0772 33.1249C57.2119 34.4199 56.75 35.9425 56.75 37.5C56.75 39.5886 57.5797 41.5916 59.0565 43.0685C60.5334 44.5453 62.5364 45.375 64.625 45.375ZM64.625 31.375C65.8364 31.375 67.0206 31.7342 68.0279 32.4073C69.0351 33.0803 69.8202 34.0369 70.2838 35.1561C70.7473 36.2753 70.8686 37.5068 70.6323 38.6949C70.396 39.8831 69.8126 40.9744 68.956 41.831C68.0994 42.6876 67.0081 43.271 65.8199 43.5073C64.6318 43.7436 63.4003 43.6224 62.2811 43.1588C61.1619 42.6952 60.2053 41.9101 59.5322 40.9029C58.8592 39.8956 58.5 38.7114 58.5 37.5C58.5 35.8756 59.1453 34.3176 60.294 33.169C61.4426 32.0203 63.0005 31.375 64.625 31.375Z" fill="#A2A2B5"/>
<path d="M44.1719 30.7537C44.0089 30.5921 43.7889 30.501 43.5594 30.5H24.375C24.1429 30.5 23.9204 30.5922 23.7563 30.7563C23.5922 30.9204 23.5 31.1429 23.5 31.375V64.625C23.5 64.8571 23.5922 65.0796 23.7563 65.2437C23.9204 65.4078 24.1429 65.5 24.375 65.5H50.625C50.8571 65.5 51.0796 65.4078 51.2437 65.2437C51.4078 65.0796 51.5 64.8571 51.5 64.625V38.375C51.5001 38.2595 51.4773 38.1452 51.433 38.0386C51.3887 37.932 51.3238 37.8352 51.2419 37.7538L44.1719 30.7537ZM49.75 63.75H25.25V32.25H43.1875L49.75 38.7381V63.75Z" fill="#A2A2B5"/>
<path d="M67.4294 55.6956C67.2654 55.5326 67.0437 55.4412 66.8125 55.4412C66.5813 55.4412 66.3596 55.5326 66.1956 55.6956L64.625 57.2619L63.0544 55.6956C62.887 55.5523 62.6717 55.4774 62.4514 55.4859C62.2312 55.4944 62.0223 55.5857 61.8665 55.7415C61.7107 55.8973 61.6194 56.1062 61.6109 56.3264C61.6024 56.5466 61.6773 56.762 61.8206 56.9294L63.3869 58.5L61.8206 60.0706C61.729 60.149 61.6546 60.2456 61.6021 60.3541C61.5496 60.4627 61.5201 60.5809 61.5154 60.7014C61.5108 60.8219 61.5311 60.9421 61.5751 61.0544C61.6191 61.1667 61.6858 61.2687 61.7711 61.3539C61.8563 61.4392 61.9583 61.5059 62.0706 61.5499C62.1829 61.5939 62.303 61.6142 62.4235 61.6096C62.544 61.6049 62.6623 61.5754 62.7708 61.5229C62.8794 61.4703 62.9759 61.396 63.0544 61.3044L64.625 59.7381L66.1956 61.3044C66.363 61.4477 66.5783 61.5226 66.7985 61.5141C67.0188 61.5056 67.2277 61.4143 67.3835 61.2585C67.5393 61.1026 67.6306 60.8937 67.6391 60.6735C67.6476 60.4533 67.5727 60.238 67.4294 60.0706L65.8631 58.5L67.4294 56.9294C67.5923 56.7654 67.6838 56.5436 67.6838 56.3125C67.6838 56.0813 67.5923 55.8595 67.4294 55.6956Z" fill="#A2A2B5"/>
<path d="M64.625 50.625C63.0675 50.625 61.5449 51.0869 60.2499 51.9522C58.9548 52.8175 57.9455 54.0474 57.3495 55.4864C56.7534 56.9253 56.5975 58.5087 56.9013 60.0363C57.2052 61.5639 57.9552 62.9671 59.0565 64.0685C60.1579 65.1698 61.5611 65.9198 63.0887 66.2237C64.6163 66.5275 66.1997 66.3716 67.6386 65.7756C69.0776 65.1795 70.3075 64.1702 71.1728 62.8751C72.0381 61.5801 72.5 60.0575 72.5 58.5C72.5 56.4114 71.6703 54.4084 70.1935 52.9315C68.7166 51.4547 66.7136 50.625 64.625 50.625ZM64.625 64.625C63.4136 64.625 62.2294 64.2658 61.2221 63.5928C60.2149 62.9197 59.4298 61.9631 58.9662 60.8439C58.5027 59.7247 58.3814 58.4932 58.6177 57.3051C58.854 56.1169 59.4374 55.0256 60.294 54.169C61.1506 53.3124 62.2419 52.729 63.4301 52.4927C64.6182 52.2564 65.8497 52.3777 66.9689 52.8412C68.0881 53.3048 69.0447 54.0899 69.7178 55.0971C70.3908 56.1044 70.75 57.2886 70.75 58.5C70.75 60.1245 70.1047 61.6824 68.956 62.831C67.8074 63.9797 66.2495 64.625 64.625 64.625Z" fill="#A2A2B5"/>
<path d="M54.125 59.5938C54.7291 59.5938 55.2188 59.1041 55.2188 58.5C55.2188 57.8959 54.7291 57.4062 54.125 57.4062C53.5209 57.4062 53.0312 57.8959 53.0312 58.5C53.0312 59.1041 53.5209 59.5938 54.125 59.5938Z" fill="#A2A2B5"/>
</svg>
